<?xml version="1.0" encoding="UTF-8"?>
<svg id="Layer_2" data-name="Layer 2" xmlns="http://www.w3.org/2000/svg" viewBox="0 0 109.49 113.01">
  <defs>
    <style>
      .cls-1 {
        fill: #fff;
      }
    </style>
  </defs>
  <g id="Layer_1-2" data-name="Layer 1">
    <g id="cArKGD.tif">
      <g>
        <path d="m0,27.21c.06-.8.12-1.6.19-2.4.38-4.48,1.43-8.78,3.78-12.67,2.88-4.76,7.09-7.79,12.38-9.38,3.38-1.02,6.85-1.32,10.36-1.21,5.49.17,10.8,1.3,16.01,3,.34.11.61.1.93-.08,4.7-2.65,9.8-3.51,15.12-3.2,2.18.13,4.35.43,6.52.65.15.01.31.01.45-.03,3.14-.92,6.35-1.5,9.62-1.74,6.75-.51,13.28.31,19.46,3.23,4.56,2.16,8.36,5.28,11.46,9.25,1.37,1.76,2.05,3.81,2.4,5.98.47,2.95.39,5.91.05,8.87-.92,8.11-3.31,15.81-6.39,23.32-1.91,4.67-4.16,9.18-6.71,13.54-.09.15-.17.31-.32.57.85-.07,1.62-.1,2.37-.22,1.47-.22,2.93-.51,4.4-.73,1.68-.25,3.31-.11,4.81.77,1.35.8,2.27,1.98,2.51,3.53.3,1.98-.19,3.79-1.51,5.35-1.71,2.03-3.84,3.47-6.14,4.73-2.6,1.42-5.41,2.13-8.31,2.54-2.13.3-4.27.42-6.41.26-.07,0-.15.01-.26.02-.05.41-.13.81-.15,1.22-.1,1.79-.15,3.59-.29,5.38-.37,4.69-1.01,9.33-2.81,13.73-2.25,5.49-6.26,8.95-12,10.43-2.02.52-4.04,1.01-6.14,1.04-.1,0-.21.04-.31.06h-.18c-.75-.09-1.51-.14-2.26-.26-3.8-.63-6.6-2.7-8.4-6.06-1.52-2.84-2.47-5.9-2.93-9.09-.62-4.24-.71-8.51-.83-12.78,0-.18,0-.36,0-.61-.2.07-.35.11-.5.17-3.01,1.2-6.13,1.54-9.35,1.18-2.17-.24-4.29-.65-6.26-1.65-.57-.29-1.12-.62-1.63-.99-.5-.36-.94-.81-1.45-1.26-.09.07-.22.16-.35.26-1.94,1.49-4.1,2.35-6.58,2.25-2.2-.08-4.13-.91-5.87-2.22-2.36-1.79-4.07-4.12-5.55-6.64-2.56-4.34-4.38-9-5.98-13.75-2.5-7.46-4.41-15.08-5.84-22.81-.42-2.27-.68-4.56-1-6.85C.05,31.31.04,30.72,0,30.13c0-.97,0-1.95,0-2.92Zm45.91,41.98c-.09.14-.16.27-.25.38-.44.55-.9,1.07-1.31,1.64-.71.97-1.66,1.6-2.81,1.91-1.24.33-2.5.62-3.75.93-1.27.31-2.54.62-3.61,1.42-1.35,1-1.56,2.59-.53,3.91.63.8,1.48,1.31,2.39,1.7,2.34,1.01,4.82,1.33,7.35,1.27,3.26-.07,6.2-1.05,8.78-3.07.24-.19.48-.38.78-.62,0,.29,0,.49,0,.68,0,6.1.07,12.19.72,18.27.27,2.52,1.01,4.86,2.32,7.02,2.17,3.57,5.35,5.38,9.52,5.37,2.97,0,5.8-.75,8.51-1.91,3.39-1.44,5.66-3.93,6.89-7.41.76-2.16,1.1-4.41,1.43-6.66.34-2.37.66-4.75.97-7.13.27-2.12.52-4.25.77-6.38.13-1.05.25-2.1.37-3.12.79.13,1.53.3,2.28.37,2.22.23,4.43.05,6.63-.25,3.95-.54,7.47-2.05,10.53-4.6.91-.76,1.77-1.59,2.2-2.74.55-1.46-.13-2.81-1.63-3.18-.45-.11-.94-.17-1.4-.11-1.11.13-2.22.35-3.32.53-2.42.38-4.85.7-7.3.31-.8-.13-1.6-.31-2.29-.82.12-.19.22-.34.31-.49,1.38-2.34,2.85-4.63,4.13-7.03,5.17-9.67,9.04-19.79,10.7-30.69.48-3.15.69-6.32.22-9.49-.25-1.7-.69-3.34-1.76-4.73-1.74-2.27-3.78-4.25-6.11-5.9-5.3-3.76-11.29-5.37-17.71-5.56-2.19-.06-4.37.07-6.55.35-2.68.35-5.32.89-7.89,1.74-.19.06-.42.07-.61.03-3.66-.81-7.35-1.15-11.09-.76-3.55.37-6.84,1.45-9.84,3.39-.16.1-.43.13-.61.07-1.95-.57-3.87-1.25-5.83-1.75-5.39-1.37-10.86-2.07-16.43-1.34-2.24.29-4.4.86-6.46,1.79-4.91,2.21-8.09,5.98-9.85,11.01-.82,2.33-1.26,4.74-1.48,7.2-.21,2.37-.3,4.75-.03,7.11.29,2.51.69,5.02,1.17,7.51,1.38,7.11,3.15,14.11,5.46,20.98,1.53,4.56,3.27,9.05,5.73,13.21,1.27,2.16,2.73,4.17,4.74,5.72,2.6,2.01,5.65,2.1,8.3.16.71-.52,1.36-1.13,1.94-1.78,2.94-3.29,5.84-6.61,8.75-9.92.2-.23.34-.28.64-.13,1.14.59,2.33,1.02,3.6,1.24.76.13,1.52.22,2.34.34Z"/>
        <path class="cls-1" d="m45.91,69.18c-.82-.12-1.58-.21-2.34-.34-1.27-.21-2.46-.65-3.6-1.24-.3-.15-.44-.1-.64.13-2.91,3.31-5.82,6.63-8.75,9.92-.58.65-1.24,1.27-1.94,1.78-2.64,1.94-5.7,1.84-8.3-.16-2.01-1.56-3.47-3.57-4.74-5.72-2.46-4.16-4.19-8.64-5.73-13.21-2.31-6.86-4.08-13.87-5.46-20.98-.48-2.49-.88-4.99-1.17-7.51-.27-2.36-.18-4.74.03-7.11.22-2.46.66-4.87,1.48-7.2,1.77-5.03,4.94-8.8,9.85-11.01,2.06-.93,4.23-1.5,6.46-1.79,5.57-.73,11.03-.04,16.43,1.34,1.97.5,3.89,1.17,5.83,1.75.18.05.46.03.61-.07,3-1.94,6.3-3.02,9.84-3.39,3.74-.39,7.43-.05,11.09.76.19.04.42.04.61-.03,2.57-.85,5.21-1.4,7.89-1.74,2.18-.28,4.36-.41,6.55-.35,6.42.18,12.41,1.8,17.71,5.56,2.34,1.66,4.37,3.63,6.11,5.9,1.07,1.39,1.51,3.03,1.76,4.73.46,3.17.25,6.34-.22,9.49-1.66,10.89-5.53,21.02-10.7,30.69-1.28,2.39-2.75,4.69-4.13,7.03-.09.16-.19.31-.31.49.69.52,1.48.7,2.29.82,2.45.39,4.88.07,7.3-.31,1.11-.18,2.21-.39,3.32-.53.46-.05.95,0,1.4.11,1.5.37,2.19,1.72,1.63,3.18-.44,1.15-1.29,1.98-2.2,2.74-3.06,2.55-6.58,4.06-10.53,4.6-2.21.3-4.41.48-6.63.25-.75-.08-1.49-.24-2.28-.37-.12,1.01-.24,2.06-.37,3.12-.26,2.13-.5,4.25-.77,6.38-.31,2.38-.62,4.76-.97,7.13-.33,2.25-.67,4.5-1.43,6.66-1.22,3.48-3.5,5.97-6.89,7.41-2.72,1.16-5.54,1.9-8.51,1.91-4.17,0-7.35-1.8-9.52-5.37-1.31-2.16-2.05-4.5-2.32-7.02-.65-6.08-.72-12.17-.72-18.27,0-.2,0-.39,0-.68-.3.24-.54.43-.78.62-2.57,2.03-5.52,3.01-8.78,3.07-2.53.05-5-.27-7.35-1.27-.91-.39-1.76-.89-2.39-1.7-1.03-1.32-.82-2.91.53-3.91,1.07-.8,2.34-1.12,3.61-1.42,1.25-.3,2.51-.59,3.75-.93,1.15-.31,2.09-.94,2.81-1.91.41-.56.88-1.09,1.31-1.64.09-.11.16-.24.25-.38Zm3.48-2.65c.52,0,.95-.05,1.36,0,3.86.53,5.52,3.98,5.51,6.39,0,1.29-.09,2.58-.08,3.88.04,4.21.05,8.42.18,12.63.08,2.62.35,5.24.53,7.85.14,1.93.74,3.71,1.69,5.38,1.53,2.71,3.81,4.13,6.95,4.09,2.35-.02,4.59-.62,6.76-1.46,2.82-1.08,4.7-3.05,5.64-5.92.74-2.25,1.01-4.58,1.35-6.9.25-1.69.48-3.39.7-5.09.21-1.58.39-3.16.58-4.74.17-1.43.36-2.86.51-4.29.16-1.51.28-3.02.41-4.53.07-.8.06-1.61.19-2.4.38-2.25,1.57-3.88,3.76-4.69.22-.08.44-.17.71-.27-.16-.21-.28-.38-.41-.54-1.3-1.61-2.53-3.27-3.43-5.15-.54-1.14-1.11-2.26-1.72-3.37-2.02-3.66-4.01-7.33-5.44-11.27-1.11-3.05-2-6.15-1.61-9.46.26-2.24,1.2-4.12,3.04-5.49,1.82-1.34,3.92-1.81,6.12-1.92,1.19-.06,2.4.04,3.6.07.14,0,.28,0,.49,0-.11-.3-.17-.51-.26-.72-2.36-5.86-5.94-10.83-10.89-14.77-5.32-4.23-11.45-6.28-18.21-6.41-1.6-.03-3.22.12-4.8.36-2.98.44-5.68,1.62-8.06,3.49-2.99,2.34-5,5.4-6.48,8.84-1.52,3.56-2.34,7.29-2.82,11.11-.05.43-.07.85-.11,1.34.15-.07.22-.09.28-.13,1.53-.82,3.13-1.47,4.8-1.96,2-.58,4.03-.92,6.11-.68,3.66.42,6.17,2.62,7.08,6.2.6,2.35.97,4.75,1.2,7.16.24,2.49.27,4.97,0,7.45-.27,2.42-.9,4.73-1.81,6.97-1,2.49-2,4.98-2.99,7.48-.18.46-.29.94-.44,1.43Zm-8.81-56.19c-.07-.03-.16-.07-.26-.1-4.25-1.36-8.59-2.28-13.04-2.51-2.79-.15-5.58,0-8.31.71-5.05,1.29-8.71,4.22-10.75,9.07-1.28,3.04-1.73,6.24-1.88,9.5-.13,2.89.1,5.77.65,8.61.7,3.61,1.43,7.22,2.27,10.8,1.5,6.38,3.35,12.66,5.83,18.74,1.27,3.11,2.69,6.15,4.68,8.89.8,1.1,1.69,2.12,2.83,2.88,1.44.95,2.75.95,4.13-.09.6-.45,1.15-1,1.65-1.56,2.65-2.99,5.29-6,7.92-9.01.18-.2.35-.41.58-.67-.15-.11-.28-.2-.38-.3-3.49-3.3-5.19-7.39-5.21-12.15,0-1.37.27-2.74.35-4.12.13-2.26.26-4.52.29-6.78.02-1.68-.19-3.37-.18-5.05.01-1.99.11-3.97.26-5.96.17-2.42.66-4.8,1.28-7.15,1.03-3.92,2.56-7.63,4.98-10.91.72-.97,1.53-1.88,2.31-2.83Zm47.72,53.43c.1-.15.19-.28.27-.4,3.37-5.39,6.2-11.04,8.5-16.96,2.51-6.46,4.51-13.06,5.24-19.99.25-2.35.34-4.69-.04-7.03-.18-1.13-.5-2.22-1.24-3.14-5.35-6.69-12.48-9.64-20.86-9.99-2.51-.1-5.01.08-7.49.46-.61.09-1.21.21-1.93.34.27.14.43.23.59.3,2.21,1.04,4.27,2.32,6.19,3.83,4.99,3.92,8.7,8.84,11.35,14.58,1.11,2.41,1.97,4.87,1.6,7.59-.19,1.41-.33,2.83-.5,4.24-.17,1.44-.39,2.88-.49,4.33-.19,2.65.28,5.27.56,7.89.23,2.22.37,4.44.08,6.67-.28,2.24-.94,4.36-2.06,6.31-.24.42-.21.68.22.97Zm-52.98-20.73c-.05,0-.1,0-.15,0,0,1.26.04,2.52-.01,3.78-.04,1.1-.16,2.21-.3,3.31-.21,1.6-.36,3.2-.15,4.8.47,3.56,2.08,6.47,4.92,8.67,1.8,1.39,3.85,2.16,6.13,2.27.29.01.4-.08.51-.37.88-2.41,1.64-4.87,2.71-7.19,1.97-4.29,2.86-8.73,2.49-13.44-.2-2.59-.59-5.15-1.13-7.68-.58-2.69-2.31-4.08-5.05-4.13-1.71-.03-3.35.32-4.95.86-1.79.61-3.5,1.38-5.04,2.51-.13.1-.28.3-.27.45.08,2.05.19,4.09.28,6.14Zm51.93-10.3c-.59-.05-1.11-.09-1.64-.14-1.69-.16-3.37-.12-5.02.31-1.57.41-2.9,1.18-3.45,2.81-.25.73-.39,1.54-.41,2.31-.04,1.51.26,2.98.67,4.43.99,3.53,2.57,6.81,4.26,10.04,1.27,2.42,2.54,4.84,3.82,7.26.06.11.14.22.24.38.09-.16.15-.26.2-.36.88-2.08,1.18-4.27,1.11-6.5-.06-1.71-.27-3.42-.45-5.12-.22-2.14-.58-4.27-.35-6.44.21-1.94.46-3.88.69-5.82.12-1.03.22-2.07.34-3.17Zm-50.54,44.92s0,.08,0,.12c.07.05.14.1.22.14.3.14.6.3.91.41,2.13.7,4.31.94,6.55.71,3.44-.36,6.11-2.03,8.14-4.79.16-.22.31-.47.36-.72.26-1.22-.18-2.27-1.07-3.02-1.19-1-1.88-.91-2.79.08-.06.07-.12.14-.18.21-.57.69-1.17,1.36-1.7,2.08-1.25,1.7-2.87,2.86-4.92,3.4-1.08.28-2.17.54-3.26.81-.76.19-1.51.38-2.26.58Zm65.18-7.2s-.05-.08-.08-.12c-.04,0-.09-.01-.13,0-2.79.53-5.58.96-8.44.73-1.78-.14-3.48-.48-4.98-1.51-.12-.08-.31-.11-.45-.08-.41.1-.81.24-1.21.37-.78.26-1.34.78-1.51,1.57-.17.75-.21,1.53-.25,2.29,0,.15.22.42.38.46.88.19,1.78.44,2.67.45,1.54,0,3.09-.09,4.63-.25,2.5-.27,4.88-.96,7.02-2.3.8-.5,1.57-1.06,2.36-1.59Z"/>
        <path class="cls-1" d="m45.15,34.66c1.18.09,2.11.2,2.95.67,1.14.62,1.26,1.53.3,2.41-2.04,1.87-4.44.56-5.23-1.2-.29-.65-.08-1.23.58-1.5.51-.21,1.07-.29,1.39-.37Z"/>
        <path class="cls-1" d="m82.37,33.83c.49.12,1.01.19,1.48.37.53.21.68.64.45,1.16-.81,1.81-3.1,2.71-4.82,1.11-.8-.74-.72-1.44.24-1.96.82-.44,1.7-.63,2.65-.69Z"/>
      </g>
    </g>
  </g>
</svg>