<?xml version="1.0" encoding="UTF-8"?>
<svg id="Layer_2" data-name="Layer 2" xmlns="http://www.w3.org/2000/svg" viewBox="0 0 110.18 125.84">
  <defs>
    <style>
      .cls-1 {
        fill: none;
      }

      .cls-2 {
        fill: #fff;
      }
    </style>
  </defs>
  <g id="Layer_1-2" data-name="Layer 1">
    <path class="cls-2" d="m110.11,60.23c0,11.09-.02,22.18,0,33.26.01,5.85-2.73,10.07-7.87,12.48-7.17,3.36-14.49,6.39-21.75,9.56-7.26,3.17-14.52,6.33-21.77,9.52-2.62,1.15-5.16.99-7.74-.14-11.87-5.18-23.76-10.33-35.63-15.5-4.27-1.86-8.49-3.84-12.8-5.58-1.75-.71-2.39-1.88-2.53-3.57-.03-.37-.02-.75-.02-1.13,0-22.29,0-44.58,0-66.87,0-5.56,2.55-9.76,7.47-12.17,5.69-2.79,11.58-5.18,17.39-7.72,8.7-3.8,17.46-7.5,26.1-11.44,2.59-1.18,4.91-1.27,7.43-.17,8.29,3.62,16.6,7.2,24.9,10.8,7.75,3.36,15.46,6.8,23.28,10.01,2.66,1.09,3.64,2.62,3.6,5.49-.14,11.05-.06,22.1-.06,33.15h0ZM54.93,26.46c-21.77-.18-38.84,17.55-38.41,39.19.44,22.12,18.35,38.56,39.75,37.83,20.73-.71,37.55-16.82,37.32-39.1-.22-22.05-18.09-38.28-38.66-37.92Z"/>
    <path class="cls-1" d="m54.93,26.49c-21.77-.18-38.84,17.56-38.41,39.19.44,22.12,18.35,38.56,39.75,37.83,20.73-.71,37.54-16.82,37.32-39.1-.22-22.05-18.09-38.28-38.66-37.92Z"/>
    <path class="cls-2" d="m66.93,92.08c-3.7,1.75-7.65,2.67-11.06,2.54-8.15.03-14.61-2.54-20.37-7.08-.62-.49-.84-1.03-.56-1.77.84-2.24,1.61-4.51,2.56-6.71,1.12-2.57.81-4.4-1.55-5.93-1.43-.93-3.08-1.51-4.65-2.23-1.32-.62-2.67-1.19-3.99-1.81-.34-.15-.66-.37-.96-.59-2.51-1.84-2.61-3.55-.19-5.5,1.04-.85,2.23-1.53,3.41-2.18.74-.41,1-.95.95-1.73-.06-1.02-.09-2.03-.16-3.04-.06-.81.15-1.48.87-1.94.92-.58,1.79-1.24,2.73-1.79,2.46-1.46,3.38-3.72,2.42-6.43-.38-1.08-.98-2.11-1.59-3.09-.41-.65-.44-1.15.13-1.67,7.24-6.61,15.43-9.73,25.24-6.82.11.04.22.05.33.09,3.69,1.27,4.33,2.71,2.78,6.27-.94,2.16-.81,2.81.84,4.51,1,1.02,2.03,2.01,2.96,3.1.83.98,1.32,2.19.69,3.43-.66,1.3-1.96,1.53-3.3,1.49-.9-.03-1.8-.1-2.7-.13-4.15-.11-9.25,3.26-10.42,7.22-.69,2.34-.51,4.83.97,6.92.48.68,1.45,1.15,2.3,1.39.95.28,2.02.12,3.02.27.99.15,2,.33,2.93.71,1.54.63,1.94,1.35,1.35,2.93-1.03,2.75-1.2,5.55-.97,8.42.06.81.21,1.64.47,2.42.85,2.57,2.44,3.07,4.45,1.2,1.86-1.73,3.57-3.65,5.21-5.6,1.46-1.74,2.53-3.69,2.59-6.1.02-.73.47-1.49.87-2.15.48-.76,1.05-1.48,1.69-2.1,2.42-2.38,2.82-5.18,1.87-8.31-.38-1.24-.27-1.4.99-1.36.79.02,1.59.08,2.35.25,3.01.64,4.55,2.39,4.29,5.27-1.15,12.66-7.15,22.11-18.79,27.63Z"/>
  </g>
</svg>