<?xml version="1.0" encoding="UTF-8"?>
<svg id="Layer_2" data-name="Layer 2" xmlns="http://www.w3.org/2000/svg" viewBox="0 0 117.97 119.28">
  <defs>
    <style>
      .cls-1 {
        fill: none;
      }

      .cls-2 {
        fill: #fff;
      }
    </style>
  </defs>
  <g id="Layer_1-2" data-name="Layer 1">
    <g>
      <path class="cls-2" d="m116.6,48.47c-.82-3.99-1.75-7.95-3.86-11.51-2.56-4.32-6.28-6.64-11.39-6.57-3.06.04-6.11,0-9.17,0h-1.37v1.75c-.03,4.31.3,8.66-.15,12.93-.99,9.42-9.44,16.2-18.3,15.99-9-.22-18.02-.06-27.04-.04-1.12.01-2.28.08-3.38.32-6.81,1.48-11.5,7.39-11.52,14.52-.03,8.78,0,17.56-.02,26.34,0,4.01,1.56,7.29,4.57,9.89,3.92,3.39,8.68,4.91,13.61,5.97,2.43.52,4.92.81,7.39,1.21h5.88c1.61-.24,3.23-.44,4.84-.73,4.87-.87,9.64-2.04,13.9-4.71,3.51-2.19,6.21-5.12,6.56-9.37.33-4.13.11-8.3.12-12.45,0-.06-.09-.12-.21-.27h-28.04v-3.54h1.46c13.6,0,27.19-.02,40.79,0,4.76.01,8.47-1.87,10.83-6,3.24-5.64,5.09-11.75,5.7-18.22.49-5.24-.14-10.4-1.2-15.52Zm-41.67,50.57c2.9.01,5.26,2.4,5.27,5.34.01,2.97-2.41,5.45-5.31,5.45-2.92,0-5.31-2.44-5.3-5.44,0-3,2.36-5.37,5.34-5.35Z"/>
      <path class="cls-2" d="m87.3,16.02c0-1.23-.15-2.52-.51-3.7-1.89-6.04-6.33-9.39-12.23-10.81C68.48.04,62.24-.11,56,.05c-5.61.15-11.16.72-16.56,2.37-4.85,1.49-8.36,4.36-8.74,9.7-.33,4.79-.17,9.62-.23,14.44,0,.06.09.12.21.31h28.09v3.53h-1.48c-12.74,0-25.47-.08-38.2.04-5.87.06-10.63,2.62-14.07,7.47-2.48,3.49-3.26,7.57-4.04,11.64-.4,2.07-.66,4.16-.98,6.24v7.05c.24,1.58.44,3.16.73,4.72.73,4.04,1.42,8.1,3.26,11.83,2.22,4.53,5.51,7.96,10.72,8.52,3.94.44,7.97.19,11.96.24.06,0,.12-.08.29-.21v-1.19c0-3.68-.04-7.37.02-11.05.02-1.48.11-2.99.46-4.42,2.01-8.19,9.2-13.77,17.66-13.78,9.01-.01,18.02.01,27.03-.01,1.1,0,2.21.02,3.28-.19,7.1-1.33,11.84-7,11.9-14.36.07-8.97.03-17.94-.01-26.92Zm-44.35,3.54c-2.91.05-5.35-2.4-5.35-5.39s2.36-5.43,5.29-5.42c2.93,0,5.33,2.46,5.32,5.43-.01,2.91-2.38,5.33-5.26,5.38Z"/>
      <path class="cls-1" d="m80.2,104.38c.01,2.97-2.41,5.45-5.31,5.45-2.92,0-5.31-2.44-5.3-5.44,0-3,2.36-5.37,5.34-5.35,2.9.01,5.26,2.4,5.27,5.34Z"/>
      <path class="cls-1" d="m48.21,14.18c-.01,2.91-2.38,5.33-5.26,5.38-2.91.05-5.35-2.4-5.35-5.39s2.36-5.43,5.29-5.42c2.93,0,5.33,2.46,5.32,5.43Z"/>
    </g>
  </g>
</svg>