<?xml version="1.0" encoding="UTF-8"?>
<svg id="Layer_2" data-name="Layer 2" xmlns="http://www.w3.org/2000/svg" viewBox="0 0 127.7 126.46">
  <defs>
    <style>
      .cls-1 {
        fill: #fff;
        stroke: #fff;
        stroke-miterlimit: 10;
        stroke-width: 3px;
      }
    </style>
  </defs>
  <g id="Layer_1-2" data-name="Layer 1">
    <g>
      <path class="cls-1" d="m78.78,68.01c-.4-.12-.77-.32-1.15-.48-.13-.05-1.27-.45-1.27-.53-.24-.09-2.56-.81-2.56-.91-1.72-.56-3.45-1.07-5.14-1.72-.56-.22-1.12-.45-1.66-.72-.51-.25-1.15-.5-1.59-.87-3.59-3.02-12.58-6.27-7.97,1.94,4.01,4,5.69,9.29,6.93,14.67.71,3.02,3.81,5.03,3.85,8.16-1.4,7.4-3.21,16.48,2.39,22.74,1.06-2.26.35-5.01.83-7.42,2.27-7.99,6.8,1.01,8.58,4.29,3.43,6.13,7.85,11.4,13.56,15.43-.43.82-.82,3.04-2.1,2.16-8.32-4.65-11.65-14.18-17.28-21.12-.03.09-.04.18-.06.27l.07-.02c.24,4.02-.67,13.76-6.26,7.68-.21-.25-.4-.5-.59-.76s-.36-.51-.53-.78-.32-.53-.47-.8-.29-.54-.42-.82-.25-.56-.37-.84-.22-.57-.32-.86-.19-.58-.28-.87-.16-.59-.24-.89-.14-.6-.2-.9-.11-.61-.16-.91-.09-.61-.13-.92-.07-.62-.1-.92-.06-.62-.08-.93-.04-.62-.06-.93-.03-.62-.04-.93c-.07-1.98-.05-4,.24-5.97,0-.02,0-.04,0-.06.14-.97.32-1.93.5-2.89v-.03c0-.18.09-.39.12-.57.05-.23.1-.46.15-.68.08-.36.16-.71.25-1.06,0-.04.02-.07.03-.11,0-.03.03-.07.03-.1-4.74-6.11-4.51-14.42-9.73-20.16-7.1-9.5,2.8-13.49,10.35-7.31,4.24,3.1,9.86,3.25,14.33,6.08,9.54,4.39,16.63,13.36,21.21,22.58.83,1.6,2.47,1.62,3.93,2.01,4.14,1.14,8.29,2.39,12.03,4.61,14.99,8.23,9.14,13.63-5.29,11.42,0,.1,0,.2-.02.31,4.22,4.75,9.41,9.91,11.13,16.09-.95.33-2.48,1.7-2.95.15-3.16-6.09-7.92-11.04-12.17-16.38-6.38-7.75,12.61-.08,15.15-3.5-3.7-4.69-9.73-6.68-15.09-8.88-2.95-1.34-7.18-1.03-8.81-4.33-.35-.7-.96-1.37-1.41-2.01-.48-.69-.96-1.39-1.43-2.08-.96-1.39-1.93-2.78-2.92-4.15-1.98-2.71-4.09-5.35-6.52-7.67-1.01-.97-2.08-1.88-3.2-2.72-1.2-.89-2.5-1.59-3.76-2.38-.14-.09-1.3-.69-1.46-.75"/>
      <path class="cls-1" d="m110.02,39.19c-.1-5.82.48-11.84-.66-17.55-6.77-14.02-27.01-17.52-41.03-19.46l.02-.05c-1.22-.16-2.47-.2-3.72-.2-.52,0-1.05,0-1.56,0h-1.68c0-.06,0-.12-.02-.19-.73-.04-1.45-.08-2.18-.1,0,0,.03,0,.03.02-.09,0-.17.02-.25.03h-.71c-.16-.03-.31-.06-.48-.08-2.33-.06-4.65-.03-6.99.15l.03-.07c-.74.06-1.5.12-2.28.19-.13.02-.25.03-.37.05-.03,0-.05,0-.07,0C31.97,3.32,9.87,6.92,2.12,22.15c-1.35,13.05,0,43.11-.46,56.68.19,8.3-.59,16.78.42,25,8.32,19.72,43.63,21.06,62.15,20.42.17-.42.34-.83.5-1.26-1.28-2.31-3.6-1.48-5.79-1.41-10.4.13-20.91-.66-30.97-3.31-8.5-2.52-19.28-5.87-23.01-14.7-1.07-6.48-.27-13.14-.48-19.69,13.12,10.46,32.39,15.76,50.11,15.53.37-.49.24-1.13.36-1.71.17-1.07.18-1.06-.86-1.1-3.48-.13-6.99-.17-10.45-.67-13.12-1.99-33.48-5.12-38.95-19.02-.25-6.05-.55-12.22.02-18.24,1.56,1.16,3.03,2.45,4.58,3.63.02.09.07.13.15.14,10.63,6.97,23.73,9.37,36.2,10.73.25-.2.52-.39.78-.59-.36-.89,0-2.51-1.38-2.48-5.07-.45-10.16-1.15-15.14-2.28-9.2-2.71-21.76-5.81-25.2-15.9-.66-6.02-.11-12.18-.2-18.24.14,0,.3-.02.45-.03,15.54,13.83,38.2,15.09,58.05,14.68v.08c15.55-1.14,32.2-3.98,44.08-14.84.14,6.02.33,12.13-.13,18.12-1.24,9.47-16.86,10.96-9.38,13.43,3.59-1.54,6.5-4.17,9.47-6.55-.11.09.19,1.68.2,1.9.04.67.05,1.35.05,2.02-.01,1.37-.09,2.74-.17,4.11-.15,2.68-.29,5.41.25,8.06.19.94.46,1.88.88,2.75.46.94.94,1.87,1.38,2.83.08.18.16.37.31.5.15-.35.05-.96.06-1.36l.02-1.48c.03-3.32.02-6.64.02-9.95,0-3.62,0-7.24.01-10.86s0-6.97,0-10.45c0-2.21,0-4.42-.03-6.63,0-.27-.02-.54-.02-.82Zm-24.16,2.71c-18.76,5.19-38.98,4.77-57.85.44-8.52-2.75-20.64-6.2-23.32-15.68,0,.09.03.19.04.28-.06-.1-.18-.19-.04-.28.16-14.35,23.7-18.77,34.87-20.98v-.07c3.51-.53,7.03-.87,10.55-1.05.65-.28,1.33-.15,2.01-.08,4.11-.13,8.23-.03,12.32.28-.07-.03-.14-.07-.2-.11.08-.02.16-.03.24-.03.32.07.65.14.98.2-.11,0-.22,0-.33,0,5.17.42,10.32,1.16,15.43,2.21,0,.06,0,.12.03.18,9.99,2.93,24.71,6.57,26.53,18.55-1.56,9.89-13.15,13.12-21.26,16.14Z"/>
      <path class="cls-1" d="m73.38,75.16c.06-.45.29-.92.52-1.26.15-.22.36-.44.62-.47.55-.06,1.25.65,1.63.97.53.45,1.01.96,1.44,1.51.59.76,1.57,1.95,1.03,2.96-.22.4-.65.44-1.04.57-.38.13-.81.43-1.23.23s-.75-.85-1.02-1.21c-.39-.52-.77-1.04-1.14-1.58-.26-.38-.68-.79-.79-1.27-.04-.15-.04-.31-.02-.47Z"/>
      <path class="cls-1" d="m74.22,103.81c-.18,0-.38-.02-.56.03.02-.09.03-.19.06-.27.16.08.33.16.5.25Z"/>
    </g>
  </g>
</svg>