<?xml version="1.0" encoding="UTF-8"?>
<svg id="Layer_2" data-name="Layer 2" xmlns="http://www.w3.org/2000/svg" viewBox="0 0 353.17 109.53">
  <defs>
    <style>
      .cls-1 {
        fill: none;
      }

      .cls-2 {
        fill: #fff;
      }
    </style>
  </defs>
  <g id="Layer_1-2" data-name="Layer 1">
    <g>
      <path class="cls-2" d="m353.09.02h-84.98c-3.62,0-7.23-.01-10.84,0-.36,0-.72.04-1.15.08.09,1.15.18,2.2.27,3.25.29,3.28.59,6.56.88,9.84.24,2.7.48,5.39.72,8.09.29,3.25.58,6.5.87,9.76.24,2.69.48,5.39.72,8.09.29,3.22.58,6.45.87,9.68.24,2.67.46,5.34.7,8.01.29,3.22.6,6.45.88,9.67.24,2.7.46,5.4.71,8.1.39,4.39.8,8.77,1.2,13.16.31,3.52.62,7.04.94,10.55q.09.94.97,1.18c2.43.67,4.86,1.35,7.29,2.02,9.31,2.58,18.63,5.16,27.94,7.74.23.07.44.19.65.29h5.9c.29-.12.57-.27.88-.36,5.47-1.52,10.94-3.05,16.42-4.57,6.24-1.73,12.49-3.45,18.73-5.18q.72-.2.79-.98c.08-.84.15-1.69.23-2.53.29-3.26.59-6.51.88-9.76.23-2.67.46-5.34.7-8.01.3-3.34.6-6.67.9-10,.23-2.62.46-5.23.69-7.85.3-3.33.6-6.66.9-10,.24-2.64.47-5.28.71-7.93.29-3.25.59-6.5.88-9.75.23-2.68.46-5.35.7-8.02.3-3.36.6-6.71.91-10.07.18-2.06.38-4.12.56-6.19.23-2.54.45-5.07.66-7.61.02-.2-.04-.4-.08-.7Zm-51,88.07c0,.1-.04.2-.09.38-.3-.06-.58-.1-.85-.18-6.81-1.89-13.61-3.79-20.41-5.69-.11-.03-.21-.07-.31-.09-.56-.08-.8-.42-.84-.98-.09-1.19-.21-2.38-.32-3.57-.25-2.74-.5-5.49-.74-8.24-.18-1.93-.35-3.86-.51-5.79-.02-.21.02-.41.03-.71.34.04.62.08.89.13,2.04.35,4.08.72,6.12,1.07.79.14.82.15.87.94.12,1.75.24,3.5.37,5.25.04.67.1.76.75.95,2.01.58,4.03,1.15,6.05,1.73.09.03.2.01.33.02.04-.12.09-.21.09-.31-.09-2.84-.17-5.68-.27-8.52-.14-4.11-.31-8.22-.44-12.34-.13-3.9-.23-7.8-.35-11.7-.09-3.02-.21-6.05-.31-9.07-.11-3.13-.21-6.27-.33-9.4-.01-.37-.05-.74-.08-1.11-.03-.36.11-.55.49-.55,3.16.01,6.32.01,9.48.02.07,0,.15.05.37.13v.95c0,17.4-.01,34.79,0,52.19,0,2.58.09,5.15.1,7.73,0,2.25-.05,4.51-.09,6.76Zm31.9-56.24c-.25.02-.54.05-.82.06-3.35.07-6.69.13-10.04.2-1.48.03-2.97.08-4.45.13-.24,0-.47.04-.8.08-.06.73-.13,1.43-.17,2.14-.15,3.26-.3,6.52-.45,9.78-.03.61.03.7.66.7,1.89.02,3.77.02,5.66.01h9.25c.04.21.1.34.09.46-.21,2.46-.43,4.92-.65,7.38-.23,2.69-.48,5.39-.72,8.09-.3,3.27-.59,6.55-.89,9.83-.24,2.67-.47,5.34-.71,8.01-.07.87-.13,1.75-.23,2.62-.11,1.01-.12,1.01-1.08,1.28-1.58.44-3.17.88-4.75,1.32-5.3,1.47-10.6,2.94-15.89,4.4-.33.1-.66.16-1.09.27-.04-.3-.09-.52-.09-.74v-11.08c0-.89.01-.9.88-1.12,4.02-1.01,8.03-2.01,12.05-3.02.23-.06.46-.13.7-.18.36-.07.52-.29.54-.67.1-1.32.22-2.64.33-3.96.31-3.55.63-7.09.94-10.63.02-.31,0-.62,0-1.05-2.6.09-5.13.32-7.66.47-2.53.14-5.07.32-7.69.49-.03-.44-.08-.78-.08-1.11v-16.09c0-6.19,0-12.38-.01-18.57,0-1.06,0-1.07,1.05-1.07h26.29c.29,0,.57.03.84.05.16.77-.71,10.58-1.01,11.52Z"/>
      <path class="cls-2" d="m95.74.01c-30.98-.01-61.95-.01-92.92-.01-.67,0-1.33,0-2,.01C.57.02.32.07,0,.11,0,.45-.01.71,0,.97c.24,2.86.48,5.72.72,8.57.18,2.01.37,4.02.55,6.03.24,2.73.48,5.45.72,8.18.29,3.3.59,6.61.88,9.91l.72,8.01c.29,3.23.58,6.46.87,9.68.24,2.7.46,5.4.7,8.1.29,3.2.6,6.39.88,9.59.24,2.73.46,5.45.71,8.18.28,3.17.59,6.34.87,9.51.35,3.89.68,7.78,1.02,11.67.07.8.13.86.91,1.08,5.32,1.48,10.64,2.96,15.97,4.44,6.45,1.78,12.9,3.55,19.35,5.33.2.06.37.18.56.28h6.06c.49-.18.98-.38,1.49-.52,11.46-3.19,22.92-6.37,34.38-9.55.84-.23.86-.26.93-1.13.13-1.59.26-3.17.41-4.76.29-3.25.59-6.5.88-9.76.24-2.67.46-5.34.7-8.01.34-3.86.7-7.72,1.05-11.58.24-2.67.46-5.34.7-8.02.3-3.38.61-6.77.91-10.15.23-2.56.46-5.13.69-7.7l.9-9.99.69-7.86c.3-3.33.6-6.66.9-9.99.25-2.72.49-5.45.74-8.17.07-.73.12-1.47.19-2.29-.49-.01-.91-.04-1.32-.04Zm-16.88,21.43c-.3,3.36-.6,6.72-.9,10.07-.01.14-.03.27-.03.4-.02.39-.21.59-.6.58h-.64c-9.19.01-18.38.02-27.57.01-5.5,0-10.99-.05-16.49-.07-.42,0-.84.04-1.35.06.06.71.11,1.33.16,1.95.2,2.2.4,4.39.6,6.58.1,1.12.19,2.23.29,3.34.05.57.09.6.68.63.21.01.43,0,.64,0,14.05-.01,28.1-.02,42.15-.03.26,0,.52.03.88.05,0,.36.02.67-.01.98-.22,2.56-.46,5.13-.69,7.69-.24,2.67-.48,5.34-.72,8.01-.31,3.36-.61,6.72-.91,10.08-.23,2.59-.46,5.18-.69,7.77-.06.69-.14,1.38-.16,2.07-.02.5-.23.77-.71.89-1.23.33-2.46.69-3.69,1.03-6.47,1.8-12.94,3.59-19.42,5.39-.73.21-1.42.28-2.18.07-7.54-2.12-15.09-4.21-22.64-6.3-.26-.07-.51-.17-.77-.22-.47-.09-.62-.35-.66-.83-.3-3.62-.63-7.24-.96-10.87-.18-2-.38-4.01-.56-6.02-.04-.47-.01-.94-.01-1.45.23-.01.41-.04.59-.04,3.11,0,6.22.01,9.32.01.51,0,1.01-.05,1.52-.06.65-.02.71.04.77.7.17,1.93.33,3.87.5,5.8.06.79.12,1.58.2,2.38.08.77.13.81.87,1.01,3.44.93,6.87,1.86,10.31,2.79.79.21,1.58.6,2.38.6.76.01,1.53-.38,2.3-.58,3.54-.96,7.07-1.91,10.61-2.86q.69-.19.75-.91c.38-4.29.76-8.57,1.14-12.86.06-.68.13-1.35.2-2.12-.4-.02-.71-.06-1.02-.06-4.3,0-8.61,0-12.91,0-9.14-.01-18.27-.02-27.41-.04-.21,0-.42-.02-.66-.04-.06-.19-.13-.36-.15-.54-.21-2.16-.42-4.33-.61-6.5-.19-2.06-.36-4.12-.54-6.18-.19-2.14-.39-4.28-.59-6.42-.24-2.73-.49-5.45-.74-8.17-.18-2.04-.35-4.07-.53-6.11-.03-.34-.08-.69-.1-1.03-.03-.52-.05-1.05-.08-1.67.43-.03.79-.08,1.14-.08h22.55c12.01-.01,24.01-.02,36.02-.02.36,0,.73.03,1.13.05,0,.41.03.75,0,1.09Z"/>
      <path class="cls-2" d="m224.69.17c-.14-.07-.18-.11-.23-.12-.13-.02-.27-.03-.4-.03-31.82-.01-63.64-.01-95.46-.01-.13,0-.26.04-.39.06-.02.01-.05.02-.07.04-.02.02-.04.04-.1.09,0,.3-.02.64,0,.98.14,1.8.3,3.6.44,5.4.18,2.11.35,4.23.52,6.35.2,2.46.4,4.92.6,7.37.13,1.57.27,3.13.4,4.69.18,2.11.37,4.23.54,6.34.15,1.72.28,3.44.42,5.16.17,2.17.36,4.34.53,6.51.13,1.66.25,3.33.38,5,.2,2.4.4,4.81.6,7.22.12,1.51.25,3.01.37,4.52.19,2.35.39,4.71.58,7.06.13,1.51.24,3.02.37,4.53.19,2.24.41,4.49.59,6.74.24,2.88.43,5.77.67,8.65.3,3.68.61,7.35.95,11.03.13,1.41-.06,1.17,1.32,1.56,7.29,2.05,14.58,4.09,21.87,6.12,4.65,1.29,9.32,2.55,13.98,3.84.19.05.38.17.57.26h5.73c.19-.1.37-.22.56-.28,2.66-.75,5.33-1.46,7.98-2.22,7.76-2.23,15.52-4.46,23.27-6.7,1.38-.39,2.76-.79,4.14-1.18.34-.1.66-.2.69-.64.1-1.22.22-2.43.33-3.65.13-1.59.24-3.18.38-4.76.24-2.67.5-5.34.74-8.01.18-2.09.33-4.18.51-6.27.25-2.85.52-5.7.77-8.56.18-1.98.33-3.97.51-5.95.25-2.91.53-5.81.78-8.72.17-1.98.32-3.97.5-5.95.24-2.86.51-5.71.76-8.57.18-2.08.34-4.17.52-6.26.25-2.81.52-5.6.77-8.41.17-1.95.32-3.91.49-5.87.24-2.75.5-5.49.75-8.24.25-2.83.51-5.66.76-8.49.02-.22,0-.45,0-.63Zm-19.11,33.07c-4.56,1.84-9.11,3.7-13.66,5.55-3.88,1.59-7.77,3.17-11.65,4.75-.53.22-1.04.47-1.56.71.02.07.03.14.05.21h24.36c1.11,0,1.09,0,.98,1.13-.19,2.14-.36,4.28-.54,6.43-.3,3.38-.6,6.76-.9,10.15-.18,2.06-.35,4.13-.53,6.19-.37,4.2-.75,8.41-1.1,12.61-.04.55-.28.77-.78.92-3.73,1.15-7.46,2.32-11.18,3.48-3.76,1.17-7.51,2.31-11.26,3.51-.75.24-1.43.24-2.18.04-5.04-1.4-10.08-2.78-15.12-4.18-2.82-.78-5.63-1.58-8.44-2.38-.8-.22-.82-.23-.9-1.07-.23-2.62-.45-5.24-.68-7.85-.25-2.86-.51-5.71-.75-8.57-.04-.47-.01-.94-.01-1.49.31-.03.6-.06.88-.06,3.32-.01,6.64-.01,9.96-.01.9,0,.94.04,1.04.91.28,2.35.56,4.69.83,7.04.01.02.01.05.01.08.14,1.13.13,1.14,1.26,1.38,4.2.9,8.41,1.79,12.62,2.68.17.04.37.03.54,0,3.92-.73,7.83-1.48,11.74-2.22.13-.02.26-.04.39-.07.59-.15.6-.18.67-.81.24-2.43.5-4.86.74-7.29.25-2.53.49-5.07.73-7.61.02-.17.01-.35.01-.63h-42.04c-.13-.77-.26-1.47-.36-2.17-.41-2.81-.8-5.62-1.21-8.43q-.11-.75.61-1.06c5.19-2.24,10.38-4.49,15.57-6.73,3.51-1.51,7.03-3.02,10.54-4.54.46-.2.9-.42,1.36-.63-.02-.06-.03-.13-.05-.2h-28.66c-.53-3.94-1.1-7.81-1.58-11.76.3-.04.5-.09.71-.09,10.09,0,20.18.02,30.27.02,9.72-.01,19.44-.04,29.16-.06.26,0,.52.03.86.05.03.33.08.61.08.89,0,3.32-.02,6.64.01,9.96.01.67-.24.98-.84,1.22Z"/>
      <path class="cls-1" d="m333.99,31.85c-.25.02-.54.05-.82.06-3.35.07-6.69.13-10.04.2-1.48.03-2.97.08-4.45.13-.24,0-.47.04-.8.08-.06.73-.13,1.43-.17,2.14-.15,3.26-.3,6.52-.45,9.78-.03.61.03.7.66.7,1.89.02,3.77.02,5.66.01h9.25c.04.21.1.34.09.46-.21,2.46-.43,4.92-.65,7.38-.23,2.69-.48,5.39-.72,8.09-.3,3.27-.59,6.55-.89,9.83-.24,2.67-.47,5.34-.71,8.01-.07.87-.13,1.75-.23,2.62-.11,1.01-.12,1.01-1.08,1.28-1.58.44-3.17.88-4.75,1.32-5.3,1.47-10.6,2.94-15.89,4.4-.33.1-.66.16-1.09.27-.04-.3-.09-.52-.09-.74v-11.08c0-.89.01-.9.88-1.12,4.02-1.01,8.03-2.01,12.05-3.02.23-.06.46-.13.7-.18.36-.07.52-.29.54-.67.1-1.32.22-2.64.33-3.96.31-3.55.63-7.09.94-10.63.02-.31,0-.62,0-1.05-2.6.09-5.13.32-7.66.47-2.53.14-5.07.32-7.69.49-.03-.44-.08-.78-.08-1.11v-16.09c0-6.19,0-12.38-.01-18.57,0-1.06,0-1.07,1.05-1.07h26.29c.29,0,.57.03.84.05.16.77-.71,10.58-1.01,11.52Z"/>
      <path class="cls-1" d="m302.18,81.33c0,2.25-.05,4.51-.09,6.76,0,.1-.04.2-.09.38-.3-.06-.58-.1-.85-.18-6.81-1.89-13.61-3.79-20.41-5.69-.11-.03-.21-.07-.31-.09-.56-.08-.8-.42-.84-.98-.09-1.19-.21-2.38-.32-3.57-.25-2.74-.5-5.49-.74-8.24-.18-1.93-.35-3.86-.51-5.79-.02-.21.02-.41.03-.71.34.04.62.08.89.13,2.04.35,4.08.72,6.12,1.07.79.14.82.15.87.94.12,1.75.24,3.5.37,5.25.04.67.1.76.75.95,2.01.58,4.03,1.15,6.05,1.73.09.03.2.01.33.02.04-.12.09-.21.09-.31-.09-2.84-.17-5.68-.27-8.52-.14-4.11-.31-8.22-.44-12.34-.13-3.9-.23-7.8-.35-11.7-.09-3.02-.21-6.05-.31-9.07-.11-3.13-.21-6.27-.33-9.4-.01-.37-.05-.74-.08-1.11-.03-.36.11-.55.49-.55,3.16.01,6.32.01,9.48.02.07,0,.15.05.37.13v.95c0,17.4-.01,34.79,0,52.19,0,2.58.09,5.15.1,7.73Z"/>
      <path class="cls-1" d="m78.86,21.44c-.3,3.36-.6,6.72-.9,10.07-.01.14-.03.27-.03.4-.02.39-.21.59-.6.58h-.64c-9.19.01-18.38.02-27.57.01-5.5,0-10.99-.05-16.49-.07-.42,0-.84.04-1.35.06.06.71.11,1.33.16,1.95.2,2.2.4,4.39.6,6.58.1,1.12.19,2.23.29,3.34.05.57.09.6.68.63.21.01.43,0,.64,0,14.05-.01,28.1-.02,42.15-.03.26,0,.52.03.88.05,0,.36.02.67-.01.98-.22,2.56-.46,5.13-.69,7.69-.24,2.67-.48,5.34-.72,8.01-.31,3.36-.61,6.72-.91,10.08-.23,2.59-.46,5.18-.69,7.77-.06.69-.14,1.38-.16,2.07-.02.5-.23.77-.71.89-1.23.33-2.46.69-3.69,1.03-6.47,1.8-12.94,3.59-19.42,5.39-.73.21-1.42.28-2.18.07-7.54-2.12-15.09-4.21-22.64-6.3-.26-.07-.51-.17-.77-.22-.47-.09-.62-.35-.66-.83-.3-3.62-.63-7.24-.96-10.87-.18-2-.38-4.01-.56-6.02-.04-.47-.01-.94-.01-1.45.23-.01.41-.04.59-.04,3.11,0,6.22.01,9.32.01.51,0,1.01-.05,1.52-.06.65-.02.71.04.77.7.17,1.93.33,3.87.5,5.8.06.79.12,1.58.2,2.38.08.77.13.81.87,1.01,3.44.93,6.87,1.86,10.31,2.79.79.21,1.58.6,2.38.6.76.01,1.53-.38,2.3-.58,3.54-.96,7.07-1.91,10.61-2.86q.69-.19.75-.91c.38-4.29.76-8.57,1.14-12.86.06-.68.13-1.35.2-2.12-.4-.02-.71-.06-1.02-.06-4.3,0-8.61,0-12.91,0-9.14-.01-18.27-.02-27.41-.04-.21,0-.42-.02-.66-.04-.06-.19-.13-.36-.15-.54-.21-2.16-.42-4.33-.61-6.5-.19-2.06-.36-4.12-.54-6.18-.19-2.14-.39-4.28-.59-6.42-.24-2.73-.49-5.45-.74-8.17-.18-2.04-.35-4.07-.53-6.11-.03-.34-.08-.69-.1-1.03-.03-.52-.05-1.05-.08-1.67.43-.03.79-.08,1.14-.08h22.55c12.01-.01,24.01-.02,36.02-.02.36,0,.73.03,1.13.05,0,.41.03.75,0,1.09Z"/>
      <path class="cls-1" d="m206.42,32.02c.01.67-.24.98-.84,1.22-4.56,1.84-9.11,3.7-13.66,5.55-3.88,1.59-7.77,3.17-11.65,4.75-.53.22-1.04.47-1.56.71.02.07.03.14.05.21h24.36c1.11,0,1.09,0,.98,1.13-.19,2.14-.36,4.28-.54,6.43-.3,3.38-.6,6.76-.9,10.15-.18,2.06-.35,4.13-.53,6.19-.37,4.2-.75,8.41-1.1,12.61-.04.55-.28.77-.78.92-3.73,1.15-7.46,2.32-11.18,3.48-3.76,1.17-7.51,2.31-11.26,3.51-.75.24-1.43.24-2.18.04-5.04-1.4-10.08-2.78-15.12-4.18-2.82-.78-5.63-1.58-8.44-2.38-.8-.22-.82-.23-.9-1.07-.23-2.62-.45-5.24-.68-7.85-.25-2.86-.51-5.71-.75-8.57-.04-.47-.01-.94-.01-1.49.31-.03.6-.06.88-.06,3.32-.01,6.64-.01,9.96-.01.9,0,.94.04,1.04.91.28,2.35.56,4.69.83,7.04.01.02.01.05.01.08.14,1.13.13,1.14,1.26,1.38,4.2.9,8.41,1.79,12.62,2.68.17.04.37.03.54,0,3.92-.73,7.83-1.48,11.74-2.22.13-.02.26-.04.39-.07.59-.15.6-.18.67-.81.24-2.43.5-4.86.74-7.29.25-2.53.49-5.07.73-7.61.02-.17.01-.35.01-.63h-42.04c-.13-.77-.26-1.47-.36-2.17-.41-2.81-.8-5.62-1.21-8.43q-.11-.75.61-1.06c5.19-2.24,10.38-4.49,15.57-6.73,3.51-1.51,7.03-3.02,10.54-4.54.46-.2.9-.42,1.36-.63-.02-.06-.03-.13-.05-.2h-28.66c-.53-3.94-1.1-7.81-1.58-11.76.3-.04.5-.09.71-.09,10.09,0,20.18.02,30.27.02,9.72-.01,19.44-.04,29.16-.06.26,0,.52.03.86.05.03.33.08.61.08.89,0,3.32-.02,6.64.01,9.96Z"/>
    </g>
  </g>
</svg>