<?xml version="1.0" encoding="UTF-8"?>
<svg id="Layer_2" data-name="Layer 2" xmlns="http://www.w3.org/2000/svg" viewBox="0 0 127.11 117.15">
  <defs>
    <style>
      .cls-1 {
        fill: #060909;
      }

      .cls-2 {
        fill: #696a6a;
      }

      .cls-3 {
        fill: #7d7e7e;
      }

      .cls-4 {
        fill: #989a9a;
      }

      .cls-5 {
        fill: #b5b8b8;
      }

      .cls-6 {
        fill: #9c9e9e;
      }

      .cls-7 {
        fill: #c2c2c2;
      }

      .cls-8 {
        fill: #a9abab;
      }

      .cls-9 {
        fill: #b0b2b2;
      }

      .cls-10 {
        fill: #d2d4d4;
      }

      .cls-11 {
        fill: #dcdddd;
      }

      .cls-12 {
        fill: #707070;
      }

      .cls-13 {
        fill: #a2a3a4;
      }

      .cls-14 {
        fill: #898b8a;
      }

      .cls-15 {
        fill: #383939;
      }

      .cls-16 {
        fill: #313131;
      }

      .cls-17 {
        fill: #5f6061;
      }

      .cls-18 {
        fill: #757777;
      }

      .cls-19 {
        fill: #797b7c;
      }
    </style>
  </defs>
  <g id="Layer_1-2" data-name="Layer 1">
    <g id="V9DSQ6.tif">
      <g>
        <path class="cls-3" d="m57.89,117.15h-2.36c0-.06-.01-.12-.02-.18.05-.07.11-.15.16-.22.07-.03.14-.08.21-.08,1.87,0,3.75.01,5.62.02,0,.15,0,.3,0,.46h-1.57c.06-.19,0-.32-.2-.31-.37.01-.73.06-1.1.09-.19,0-.39,0-.58.04-.06.01-.11.12-.16.18Zm-1.18-.17s.05-.03.05-.05c0-.02-.03-.04-.04-.06-.02.02-.05.03-.05.05,0,.02.03.04.04.06Z"/>
        <path class="cls-11" d="m55.51,116.97c0,.06.01.12.02.18h-1.57v-.18c0-.1,0-.2,0-.31.56.04,1.11.07,1.67.11-.04.07-.08.14-.12.21Z"/>
        <path class="cls-10" d="m63.4,117.15h-1.1c.29-.27-.11-.3-.15-.45.31,0,.63,0,.94,0,.1.15.21.3.31.45Z"/>
        <path class="cls-9" d="m62.14,116.69c.05.15.44.19.15.45h-.79c0-.15,0-.3,0-.46.21,0,.42,0,.63,0Z"/>
        <path class="cls-16" d="m58.63,116.92c.37-.03.73-.07,1.1-.09.2,0,.26.12.2.31h-1.1c-.05-.05-.11-.11-.16-.16,0,0-.05-.06-.05-.06Z"/>
        <path class="cls-11" d="m63.4,117.15c-.1-.15-.21-.3-.31-.45.18.01.37.02.55.03l-.08.42h-.16Z"/>
        <path class="cls-16" d="m57.89,117.15c.05-.06.1-.17.16-.18.19-.03.39-.03.58-.04l.05.06c0,.05,0,.11,0,.16h-.79Z"/>
        <path class="cls-16" d="m53.96,116.96v.18h-.32c.11-.06.21-.12.32-.18Z"/>
        <path class="cls-1" d="m58.68,117.15c0-.05,0-.11,0-.16.05.05.11.11.16.16h-.16Z"/>
        <path class="cls-1" d="m63.63,116.73c-.18-.01-.37-.02-.55-.03-.31,0-.63,0-.94,0h-.63c-1.87-.01-3.75-.02-5.62-.03-.07,0-.14.05-.21.08l-.05.02c-.56-.04-1.11-.07-1.67-.11-.6-.04-1.2-.06-1.8-.11-1.41-.12-2.82-.2-4.22-.37-3.27-.4-6.49-1.06-9.65-2-4.73-1.42-9.18-3.43-13.3-6.16-4.73-3.14-8.78-7.02-12.32-11.44-2.42-3.03-4.61-6.21-6.44-9.63-2.21-4.14-3.74-8.54-4.67-13.14-.53-2.65-.84-5.31-.79-8.02.05-2.59.04-5.19,0-7.78-.04-2.39.31-4.74.71-7.09.12-.72.27-1.44.41-2.15.02-.02.05-.03.05-.05,0-.04-.01-.08-.02-.13.58-2.22,1.07-4.47,1.77-6.65.86-2.66,2.22-5.12,3.55-7.57,3.24-5.94,7.39-11.17,12.41-15.7,4.46-4.03,9.49-7.2,15.1-9.41,3.72-1.47,7.51-2.7,11.43-3.5,2.15-.44,4.32-.78,6.53-.88,1.31-.06,2.62-.16,3.93-.1,1.88.08,3.76.28,5.63.43.03,0,.05,0,.08,0,.32.06.67.16.68.53.01.37-.36.39-.63.46-.18.04-.36.06-.54.07-1.57.07-3.15.08-4.71.22-1.87.17-3.75.41-5.61.69-3.96.6-7.84,1.54-11.64,2.78-2.08.68-4.12,1.5-6.06,2.53-.23.12-.35.26-.35.54,0,2.44-.04,4.87.26,7.3.15,1.22.26,2.44.37,3.67.03.31.15.41.44.39,1.88-.15,3.74-.35,5.57-.86,1.46-.41,2.93-.77,4.41-1.07,1.07-.22,2.15-.39,3.27-.14,1.03.23,1.86.7,2.42,1.59.33.53.72.63,1.31.51,1.59-.31,3.19-.54,4.79-.81.32-.05.38-.17.15-.39-.93-.92-1.87-1.84-2.83-2.73-2.06-1.91-4.23-3.68-6.49-5.34-.94-.7-1.31-1.6-1.1-2.74.13-.73.53-1.25,1.3-1.38.69-.12,1.4-.19,2.09-.29,1.27-.18,2.53-.37,3.8-.54.73-.1,1.46-.2,2.19-.21,2.52-.03,5.03-.03,7.55-.02,2.31.01,4.59.32,6.86.7,2.45.4,4.86,1,7.23,1.74,2.92.91,5.74,2.07,8.47,3.46,4.03,2.05,7.77,4.54,11.13,7.57,3.11,2.8,5.8,5.95,7.93,9.59,1.35,2.3,2.69,4.6,3.76,7.05,1.41,3.24,2.47,6.6,3.1,10.08.38,2.11.7,4.23.72,6.39.01,1.6.14,3.19.1,4.79-.21,7.23-1.77,14.17-4.49,20.88-1.93,4.77-4.37,9.26-7.38,13.43-3.76,5.2-8.18,9.74-13.58,13.28-3.07,2.01-6.41,3.49-9.83,4.8-2.56.98-5.19,1.76-7.88,2.3-1.63.33-3.31.47-4.96.7-.18.02-.36.04-.54.06ZM10.1,49.21c-.06-.01-.11-.02-.17-.04-.24.13-.5.25-.73.41-.89.64-1.77,1.3-2.66,1.95-.49.36-1.03.53-1.62.31-.33-.12-.35.07-.36.3-.04.6-.11,1.2-.13,1.8-.1,3.67-.11,7.33.27,10.99.35,3.39.99,6.71,1.78,10.02,1,4.22,2.58,8.2,4.7,11.98,1.97,3.53,4.31,6.8,7.07,9.77,4.03,4.34,8.62,7.93,13.92,10.59,2.19,1.1,4.44,2.07,6.78,2.84.34.11.52.08.72-.17.57-.69,1.14-1.36,1.72-2.05.07-.08.13-.17.18-.25.19-.32.15-.42-.21-.57-.12-.05-.25-.09-.37-.13-1.37-.51-2.74-1.02-4.11-1.52-.41-.15-.75-.37-.96-.77-.84-1.57-1.49-3.22-1.92-4.95-.1-.4-.25-.73-.52-1.03-.23-.25-.45-.51-.68-.76-1.85-2-3.77-3.93-5.41-6.12-.26-.35-.35-.36-.7-.07-.61.5-1.19,1.03-1.79,1.54-1.33,1.14-2.89,1.65-4.64,1.56-.66-.04-.82-.27-.51-.84.26-.48.58-.94.91-1.37,1.02-1.31,2.22-2.44,3.45-3.54.49-.43.52-.67,0-1.06-.34-.26-.76-.44-1.18-.59-2.48-.88-4.51-2.36-5.86-4.62-1.45-2.41-1.7-4.91.06-7.34.16-.22.16-.41.06-.65-.48-1.18-.94-2.37-1.42-3.56-.17-.42-.26-.45-.62-.19-1,.71-1.99,1.45-2.99,2.15-.49.34-.99.71-1.53.92-.97.38-1.95-.16-2.3-1.15-.33-.94-.15-1.78.56-2.45.61-.57,1.3-1.06,1.97-1.55.76-.56,1.55-1.07,2.31-1.63.41-.3.4-.37.12-.76-1.4-1.99-2.75-4.02-4.37-5.84-.3-.34-.44-.7-.41-1.14.06-.94.09-1.88.19-2.82.29-2.52.8-5,1.39-7.47,0-.05,0-.1,0-.16Zm93.06,4.34s-.03.04-.03.04c0,.08,0,.16,0,.24.08.44.18.87.23,1.31.15,1.25.28,2.49.42,3.74.06.49-.05.93-.33,1.33-.36.51-.72,1.03-1.03,1.57-.15.26-.23.59-.24.88,0,.49.06.99.11,1.49.32,2.68.49,5.37.47,8.07,0,.48.17.79.55,1.04.44.29.87.58,1.27.91.54.44.53.72.07,1.24-.4.46-.92.7-1.48.82-.38.08-.44.25-.43.59.08,2.86-.09,5.7-.35,8.55-.02.07-.03.14-.05.21-.02.3-.04.59-.05.89-.01.11-.02.22-.04.33-.02.09-.04.18-.07.28.08-.07.16-.13.25-.2.06-.12.11-.25.17-.37.47-1.13.95-2.25,1.4-3.39,1.09-2.77,1.85-5.64,2.63-8.51,1.14-4.21,1.68-8.51,1.72-12.86.02-2.33-.26-4.65-.57-6.95-.44-3.29-1.19-6.51-2.23-9.67-1.44-4.36-3.49-8.38-6.54-11.85-.22-.25-.46-.52-.75-.67-2.02-1.04-4.09-1.97-6.23-2.71-.08-.04-.16-.08-.25-.12-.03.09-.1.22-.07.27.08.12.21.2.32.3.11.15.21.3.32.44,1.93,2.37,3.73,4.83,5.25,7.49,1.36,2.38,2.46,4.88,3.39,7.45.53,1.47.94,2.98,1.37,4.48.14.49.39.83.82,1.08.52.3,1.03.62,1.52.96.19.13.38.29.49.49.27.47.03.89-.52.89-.44,0-.88-.07-1.32-.1-.07.01-.14.03-.21.04Zm-98.45-2.72c.06,0,.11,0,.17-.01.09-.11.19-.22.28-.33.35-.53.68-1.07,1.07-1.57.92-1.21,1.85-2.4,2.79-3.59.34-.43.52-.86.45-1.43-.11-.99-.14-1.98-.21-2.97-.05-.86-.1-1.72-.16-2.58-.01-.15-.09-.29-.14-.44-.02-.09-.04-.19-.05-.28-.08.1-.16.2-.23.3-.25.57-.5,1.15-.76,1.71-1.57,3.35-2.61,6.86-3.15,10.52-.01.23-.33.43-.06.68Zm90.81-22.37c-.18-.2-.35-.39-.53-.59-.68-.76-1.3-1.57-2.05-2.26-4.19-3.87-9.02-6.75-14.26-8.95-4.03-1.69-8.19-2.95-12.5-3.72-2.06-.36-4.13-.61-6.21-.85-1.19-.13-2.41-.09-3.6-.2-1.91-.18-3.82-.12-5.72.05-.14.01-.29.03-.43.04.07.12.14.24.23.35.04.05.13.07.19.11,1.19.97,2.42,1.92,3.58,2.93,2.31,2.02,4.34,4.33,6.32,6.66.66.77,1.32.99,2.28.9,1.33-.11,2.67-.14,4-.09,2.04.08,4.08.24,6.11.42,1.61.14,3.22.34,4.83.57.82.12,1.63.34,2.45.51.12.02.25-.02.37-.03-.05-.13-.08-.28-.16-.38-.25-.3-.53-.58-.77-.89-.19-.24-.36-.51-.51-.78-.13-.23-.28-.52-.03-.72.2-.16.52-.27.77-.26.3.02.61.17.87.32.52.3,1.04.61,1.52.96.63.46,1.24.96,1.84,1.47.63.53,1.31.92,2.13,1.12.81.19,1.63.4,2.41.69,2.03.76,4.03,1.57,6.05,2.35.16.09.31.19.47.28.13.25.34.13.52.11,0-.04,0-.09-.02-.1-.04-.02-.09-.02-.14-.03Zm4.8,38.8c-.05-.35-.1-.7-.14-1.05,0-.15,0-.29-.01-.44-.12.1-.24.2-.35.31-.03.03-.02.09-.03.14-.65,1.33-1.31,2.66-1.96,3.99-.28.57-.25.66.3.88.74.31,1.5.59,2.25.87.27.1.38,0,.35-.29-.12-1.4-.25-2.8-.38-4.2,0-.07-.02-.14-.02-.21Zm-49.97,45.2c.1-.29-.14-.36-.31-.46-.65-.43-1.32-.85-1.97-1.27-.81-.53-1.62-1.05-2.42-1.6-.3-.21-.52-.17-.74.1-.47.59-.97,1.17-1.43,1.76-.34.43-.32.51.24.63.86.19,1.73.37,2.61.48,1.27.17,2.54.28,3.81.42.07-.02.13-.05.2-.07Zm26.56-85.86c-.44-.02-.89-.03-1.33-.06-1.25-.09-2.5-.25-3.76-.27-2.38-.05-4.77-.02-7.15-.02-.1,0-.21,0-.31,0-.42.04-.44.09-.19.47.1.15.22.3.32.45,1,1.47,2,2.93,2.98,4.42.59.89,1.11,1.83,1.69,2.73.27.43.36.42.65,0,.54-.77,1.07-1.55,1.6-2.33,1.44-2.13,3.16-3.96,5.52-5.09.06-.08.12-.16.18-.25-.06-.02-.13-.03-.19-.05Zm8.35,78.28l.18.09c.98-.65,1.97-1.28,2.93-1.95,2.24-1.56,4.36-3.25,6.23-5.24.59-.63,1.14-1.29,1.72-1.93.22-.24.13-.36-.14-.43-.13-.03-.25-.08-.38-.1-1.34-.22-2.68-.42-4.01-.67-.6-.11-1.03,0-1.48.43-1.3,1.22-2.61,2.42-3.98,3.55-.64.53-1.15,1.05-.98,1.95.01.07-.02.16-.02.23-.02,1.36-.05,2.72-.07,4.07Zm-16.67,6.93c.38-.05.46-.23.22-.52-.28-.34-.59-.67-.86-1.02-2.64-3.45-5.18-6.97-7.58-10.59-.28-.42-.3-.43-.75-.23-3.73,1.67-7.25,3.72-10.52,6.18-.52.39-.99.85-1.48,1.27-.03.03-.06.06-.09.09.05.03.1.05.15.08.28.2.55.39.83.59,2.1,1.51,4.2,3.02,6.29,4.54.65.47,1.37.6,2.15.57,1.23-.06,2.46-.12,3.68-.16,2.62-.08,5.21-.38,7.79-.79.06,0,.12-.01.18-.02ZM12.79,41.35c0,.07,0,.14,0,.21.05-.06.1-.12.15-.17.39-.64.83-1.26,1.17-1.93,1.42-2.75,3.12-5.32,5.09-7.7,1.12-1.35,2.21-2.72,3.53-3.9.66-.59,1.29-1.23,1.91-1.87.36-.38.76-.61,1.29-.67,1.3-.14,2.6-.31,3.89-.48.6-.07,1.19-.17,1.79-.23.3-.03.41-.18.37-.47-.02-.16-.04-.31-.05-.47-.23-2.47-.46-4.95-.67-7.42-.06-.7-.05-1.41-.08-2.12-.01-.32-.09-.37-.38-.19-1.12.72-2.27,1.4-3.35,2.18-5.6,4.07-10.26,9.08-14.39,14.61-.57.76-.83,1.55-.79,2.48,0,.26,0,.52.02.79.17,2.45.33,4.91.5,7.36Zm46.52,28c.89-.21,1.77-.45,2.67-.61,2.11-.38,4.19-.88,6.35-1,.97-.05,1.93-.19,2.89-.29.33-.03.36-.09.2-.39-.06-.11-.14-.22-.21-.33-1.55-2.13-3.63-3.25-6.26-3.36-1.2-.05-2.41-.1-3.61-.16-.97-.05-1.91-.28-2.79-.72-1.81-.89-2.94-2.3-3.19-4.35-.02-.13-.05-.26-.07-.39-.27-1.49-.25-2.96.35-4.39.43-1.02.61-2.1.53-3.22-.02-.22-.04-.32-.32-.25-4.31,1.17-8.53,2.61-12.58,4.49-.38.18-.74.37-1.12.56.11.42.19.84.32,1.26,1.68,5.27,3.61,10.45,5.84,15.51.13.29.23.58.38.86.19.35.39.4.77.23,3.12-1.41,6.35-2.52,9.65-3.41.06-.02.13-.03.19-.05Zm8.81,23.28c.99-.22,1.98-.47,2.99-.64,1.44-.24,2.89-.43,4.34-.63.73-.1.77-.13.71-.89-.05-.7-.13-1.41-.15-2.12-.07-2.16.33-4.27.84-6.35.39-1.6.81-3.19.72-4.87-.04-.66-.24-1.21-.63-1.73-.98-1.29-2.1-2.48-2.86-3.93-.07-.12-.29-.21-.44-.23-.23-.03-.47,0-.7.03-1.61.19-3.22.36-4.83.58-3.01.41-5.96,1.05-8.87,1.91-2.65.78-5.27,1.68-7.74,2.95-.64.33-.66.34-.3.99.91,1.67,1.77,3.38,2.77,5,2.36,3.83,4.79,7.61,7.2,11.41.27.43.42.49.91.36.18-.04.35-.12.52-.17,1.77-.54,3.54-1.07,5.32-1.6.07-.02.14-.05.22-.07Zm-9.4-65.81c-1.79.24-3.58.45-5.36.74-1.67.28-3.31.59-4.85,1.44-1.43.79-3.01,1.32-4.52,1.97-2.66,1.15-5.12,2.61-7.29,4.55-.25.22-.39.4-.29.79,1.14,4.58,2.46,9.11,4,13.58.1.3.19.6.28.9.09.28.25.37.53.25.43-.18.88-.33,1.32-.5,2.13-.79,4.23-1.65,6.39-2.36,2.08-.69,4.21-1.22,6.32-1.82,1.03-.3,1.02-.3,1.1-1.37.1-1.34.46-2.56,1.46-3.54.68-.67,1.43-1.24,2.27-1.66,1.22-.6,2.45-1.16,3.69-1.73.76-.35,1.54-.66,2.29-1.01.35-.16.35-.25.11-.59-.24-.34-.47-.69-.69-1.05-.8-1.28-1.56-2.6-2.42-3.85-.97-1.4-2.05-2.71-3.05-4.09-.34-.47-.67-.8-1.3-.66Zm-14.26,48.16c.76-.01,1.01-.35.82-.94-.05-.17-.15-.33-.22-.5-1.72-4-3.24-8.08-4.67-12.19-.5-1.45-1.01-2.91-1.52-4.36-.18-.51-.21-.53-.65-.3-2.47,1.3-4.97,2.56-7.39,3.94-3.75,2.14-7.3,4.6-10.76,7.19-.46.35-.59.57-.36,1.19.43,1.17.84,2.35,1.27,3.53.19.52.27.58.87.42,1.41-.37,2.82-.76,4.23-1.15,1.26-.35,2.53-.42,3.8-.17,1.64.32,3.28.62,4.91,1,2.54.59,5.07,1.23,7.6,1.85.73.18,1.47.35,2.06.49Zm-28.94-18.31c.05.25.09.56.18.86.31,1.11.62,2.21.95,3.31.3.97.61,1.94.95,2.9.21.59.32.6.84.23.36-.26.71-.54,1.07-.8,3.28-2.29,6.68-4.39,10.13-6.43,2.45-1.45,4.98-2.76,7.54-4.01.48-.23.48-.24.35-.7-1.26-4.41-2.4-8.86-3.4-13.34-.01-.06-.06-.12-.11-.16-.02-.01-.1.02-.13.06-.1.12-.19.25-.28.38-1.03,1.48-2.05,2.97-3.1,4.44-1.3,1.81-2.63,3.59-4.27,5.12-1.52,1.43-3.23,2.47-5.34,2.76-.51.07-1.02.26-1.49.46-1.95.86-3.06,2.47-3.81,4.37-.06.14-.05.31-.08.53Zm58.01,53.95c.21-.06.34-.09.46-.13,2.58-1.01,5.12-2.08,7.58-3.36.52-.27.76-.61.75-1.22-.02-1.25.05-2.51.09-3.76,0-.24-.09-.31-.33-.21-.71.3-.85.3-1.33-.27-.52-.62-1.02-1.27-1.43-1.96-.81-1.34-1.39-2.8-1.92-4.27-.3-.85-.31-.89-1.21-.73-1.88.33-3.75.67-5.61,1.06-2.17.46-4.29,1.09-6.37,1.88-.43.16-.48.29-.23.67.13.2.29.37.41.57,2.62,4.02,5.57,7.78,8.72,11.39.12.14.3.24.42.34Zm27.37-28.65s-.07,0-.11,0c0-1.99-.01-3.98,0-5.97,0-.47-.15-.72-.6-.86-1.19-.38-2.37-.8-3.56-1.18-.49-.16-.6-.09-.83.43-.31.69-.64,1.37-.91,2.08-.62,1.64-1.09,3.32-.98,5.11.04.7,0,1.41,0,2.12,0,1.99,0,3.98,0,5.97,0,.83-.23,1.59-.75,2.27-.34.44-.29.51.23.65,1.35.38,2.71.75,4.05,1.19.35.11.56.07.74-.18.67-.93,1.37-1.85,1.97-2.82.23-.38.33-.89.35-1.35.15-2.48.26-4.97.39-7.45Zm-53.54,19.11c0,.47,0,.94,0,1.41,0,.24.15.26.3.18.31-.19.61-.4.9-.62,2.8-2.12,5.78-3.94,8.89-5.56.51-.27.52-.29.22-.81-.07-.11-.15-.22-.22-.33-2.1-3.36-4.21-6.72-6.31-10.09-.04-.06-.08-.11-.13-.17-.07.07-.16.12-.2.2-.06.11-.09.25-.12.37-.46,1.9-1.11,3.74-1.82,5.57-.36.92-.67,1.87-.88,2.83-.51,2.31-.47,4.67-.64,7.02ZM4.68,51.18s-.03-.03-.04-.05c-.02.01-.04.03-.04.04,0,.01.02.03.04.05.02-.01.03-.03.05-.04Z"/>
        <path class="cls-14" d="m1.92,48.57s.02.08.02.13c0,.02-.04.03-.05.05.01-.06.02-.12.03-.18Z"/>
        <path class="cls-13" d="m55.63,116.76s.05-.02.05-.02c-.05.07-.11.15-.16.22l.12-.21Z"/>
        <path class="cls-16" d="m56.71,116.98s-.04-.04-.04-.06c0-.02.03-.03.05-.05.02.02.04.04.04.06,0,.02-.03.03-.05.05Z"/>
        <path class="cls-11" d="m94.69,28.2c.1-.11.2-.22.31-.33.18.2.35.39.53.59-.12,0-.24.01-.37.02-.16-.09-.31-.19-.47-.28Z"/>
        <path class="cls-5" d="m4.77,50.15c.13.11.26.22.39.34-.09.11-.19.22-.28.33-.06,0-.11,0-.17.01-.27-.25.05-.45.06-.68Z"/>
        <path class="cls-8" d="m92.03,29.89c0,.15,0,.3,0,.45-.11-.1-.24-.18-.32-.3-.03-.05.04-.18.07-.27.08.04.16.08.25.12Z"/>
        <path class="cls-7" d="m50.65,11.95c0,.17-.01.33-.02.5-.07-.03-.15-.05-.19-.11-.09-.11-.15-.23-.23-.35.14-.01.29-.03.43-.04Z"/>
        <path class="cls-7" d="m100.18,66.21c-.13,0-.26,0-.39,0,0-.05,0-.11.03-.14.11-.11.23-.21.35-.31,0,.15,0,.29.01.44Z"/>
        <path class="cls-18" d="m95.16,28.48c.12,0,.24-.01.37-.02.05,0,.1,0,.14.03.02.01.01.07.02.1-.19.02-.39.14-.52-.11Z"/>
        <path class="cls-5" d="m102.29,86.47c.1.01.21.02.31.04-.06.12-.11.25-.17.37-.06-.03-.12-.05-.18-.08.01-.11.02-.22.04-.33Z"/>
        <path class="cls-15" d="m102.25,86.8c.06.03.12.05.18.08-.08.07-.16.13-.25.2.02-.09.04-.18.07-.28Z"/>
        <path class="cls-6" d="m8.97,37.89c-.1,0-.19.02-.29.02.08-.1.16-.2.23-.3.02.09.04.19.05.28Z"/>
        <path class="cls-10" d="m12.79,41.35c.05.01.1.02.16.04-.05.06-.1.12-.15.17,0-.07,0-.14,0-.21Z"/>
        <path class="cls-9" d="m76.93,26.89c0-.1,0-.2-.01-.3.06.02.13.03.19.05-.06.08-.12.16-.18.25Z"/>
        <path class="cls-19" d="m59.11,69.4l.19-.05-.19.05Z"/>
        <path class="cls-17" d="m67.91,92.7c.07-.02.14-.05.22-.07-.07.02-.14.05-.22.07Z"/>
        <path class="cls-2" d="m85.26,104.88l.18.09-.18-.09Z"/>
        <path class="cls-2" d="m47.61,106.91c.02.06.04.11.06.17-.05-.03-.1-.05-.15-.08.03-.03.06-.06.09-.09Z"/>
        <path class="cls-12" d="m102.39,85.37c-.02.07-.03.14-.05.21.02-.07.03-.14.05-.21Z"/>
        <path class="cls-12" d="m68.41,111.83c.06,0,.12-.01.18-.02-.06,0-.12.01-.18.02Z"/>
        <path class="cls-19" d="m50.16,112.53c.07-.02.13-.05.2-.07-.07.02-.13.05-.2.07Z"/>
        <path class="cls-8" d="m100.35,67.46c0-.07-.02-.14-.02-.21,0,.07.02.14.02.21Z"/>
        <path class="cls-4" d="m103.13,53.59c0,.08,0,.16,0,.24,0-.08,0-.16,0-.24Z"/>
        <path class="cls-4" d="m103.37,53.5c-.07.01-.14.03-.21.04.07-.01.14-.03.21-.04Z"/>
        <path class="cls-16" d="m4.68,51.18s-.03.03-.05.04c-.01-.02-.04-.03-.04-.05,0-.01.03-.03.04-.04.01.02.03.03.04.05Z"/>
        <path class="cls-16" d="m4.71,50.83c.06,0,.11,0,.17-.01-.06,0-.11,0-.17.01Z"/>
        <path class="cls-16" d="m10.1,49.21c0,.05,0,.1,0,.16l-.06.02c.02-.06.04-.12.06-.18Z"/>
        <path class="cls-11" d="m10.1,49.21c-.02.06-.04.12-.06.18-.04-.07-.07-.14-.11-.21.06.01.11.02.17.04Z"/>
      </g>
    </g>
  </g>
</svg>