<?xml version="1.0" encoding="UTF-8"?>
<svg id="Layer_2" data-name="Layer 2" xmlns="http://www.w3.org/2000/svg" viewBox="0 0 110.18 125.84">
  <defs>
    <style>
      .cls-1 {
        fill: #fff;
      }
    </style>
  </defs>
  <g id="Layer_1-2" data-name="Layer 1">
    <g>
      <path class="cls-1" d="m110.11,60.23h0c0-11.05-.09-22.1.06-33.15.04-2.88-.95-4.4-3.6-5.49-7.81-3.21-15.53-6.65-23.28-10.01-8.3-3.59-16.61-7.18-24.9-10.8-2.53-1.1-4.84-1.02-7.43.17-8.64,3.94-17.39,7.63-26.1,11.44-5.81,2.54-11.7,4.94-17.39,7.72C2.56,22.51.01,26.71,0,32.27,0,54.56,0,76.85,0,99.14c0,.38,0,.75.02,1.13.13,1.69.78,2.86,2.53,3.57,4.31,1.75,8.53,3.73,12.8,5.58,11.88,5.17,23.76,10.32,35.63,15.5,2.58,1.13,5.13,1.29,7.74.14,7.25-3.19,14.52-6.35,21.77-9.52,7.26-3.17,14.58-6.19,21.75-9.56,5.15-2.42,7.89-6.64,7.87-12.48-.03-11.09,0-22.18,0-33.26Z"/>
      <path d="m110.11,60.23c0,11.09-.02,22.18,0,33.26.01,5.85-2.73,10.07-7.87,12.48-7.17,3.36-14.49,6.39-21.75,9.56-7.26,3.17-14.52,6.33-21.77,9.52-2.62,1.15-5.16.99-7.74-.14-11.87-5.18-23.76-10.33-35.63-15.5-4.27-1.86-8.49-3.84-12.8-5.58-1.75-.71-2.39-1.88-2.53-3.57-.03-.37-.02-.75-.02-1.13,0-22.29,0-44.58,0-66.87,0-5.56,2.55-9.76,7.47-12.17,5.69-2.79,11.58-5.18,17.39-7.72,8.7-3.8,17.46-7.5,26.1-11.44,2.59-1.18,4.91-1.27,7.43-.17,8.29,3.62,16.6,7.2,24.9,10.8,7.75,3.36,15.46,6.8,23.28,10.01,2.66,1.09,3.64,2.62,3.6,5.49-.14,11.05-.06,22.1-.06,33.15h0ZM54.93,26.46c-21.77-.18-38.84,17.55-38.41,39.19.44,22.12,18.35,38.56,39.75,37.83,20.73-.71,37.55-16.82,37.32-39.1-.22-22.05-18.09-38.28-38.66-37.92Z"/>
      <path class="cls-1" d="m54.93,26.46c20.57-.36,38.44,15.87,38.66,37.92.22,22.28-16.59,38.38-37.32,39.1-21.4.73-39.3-15.7-39.75-37.83-.43-21.63,16.64-39.37,38.41-39.19Zm.94,68.12c3.41.13,7.36-.79,11.06-2.54,11.64-5.52,17.64-14.97,18.79-27.63.26-2.88-1.27-4.62-4.28-5.27-.77-.16-1.56-.22-2.35-.25-1.27-.04-1.37.12-.99,1.36.95,3.12.55,5.92-1.87,8.3-.64.63-1.22,1.35-1.69,2.11-.4.65-.85,1.42-.87,2.14-.06,2.41-1.14,4.36-2.6,6.1-1.64,1.95-3.34,3.87-5.21,5.6-2.01,1.87-3.6,1.37-4.45-1.21-.26-.78-.41-1.6-.47-2.42-.23-2.87-.06-5.67.97-8.42.59-1.58.2-2.3-1.35-2.93-.92-.38-1.94-.56-2.93-.71-1-.15-2.07,0-3.02-.27-.84-.24-1.82-.72-2.3-1.4-1.47-2.09-1.66-4.58-.97-6.92,1.17-3.96,6.28-7.33,10.43-7.22.9.02,1.8.1,2.7.13,1.34.04,2.64-.19,3.3-1.48.63-1.24.14-2.45-.7-3.44-.92-1.08-1.96-2.07-2.95-3.09-1.65-1.7-1.78-2.35-.84-4.51,1.55-3.57.91-5.01-2.78-6.27-.11-.04-.22-.06-.33-.09-9.82-2.92-18,.2-25.24,6.81-.57.52-.53,1.02-.13,1.67.61.98,1.2,2.01,1.59,3.09.96,2.71.04,4.97-2.42,6.43-.94.55-1.81,1.21-2.73,1.79-.72.46-.93,1.12-.87,1.93.07,1.01.1,2.03.17,3.04.05.79-.21,1.32-.95,1.73-1.18.65-2.37,1.33-3.41,2.18-2.42,1.96-2.32,3.67.19,5.51.3.22.62.44.96.59,1.33.61,2.67,1.19,4,1.8,1.56.72,3.22,1.31,4.65,2.24,2.36,1.53,2.67,3.36,1.55,5.93-.95,2.19-1.72,4.47-2.56,6.71-.28.74-.05,1.28.56,1.77,5.76,4.55,12.22,7.11,20.37,7.08Z"/>
      <path d="m55.87,94.58c-8.15.03-14.61-2.53-20.37-7.08-.62-.49-.84-1.03-.56-1.77.85-2.24,1.61-4.51,2.56-6.71,1.12-2.57.81-4.4-1.55-5.93-1.43-.93-3.08-1.51-4.65-2.24-1.33-.61-2.67-1.19-4-1.8-.34-.16-.65-.37-.96-.59-2.51-1.84-2.6-3.55-.19-5.51,1.04-.84,2.23-1.53,3.41-2.18.74-.41,1-.94.95-1.73-.07-1.01-.1-2.03-.17-3.04-.06-.81.15-1.47.87-1.93.92-.59,1.79-1.24,2.73-1.79,2.47-1.46,3.39-3.72,2.42-6.43-.39-1.08-.98-2.11-1.59-3.09-.41-.66-.44-1.15.13-1.67,7.24-6.61,15.43-9.73,25.24-6.81.11.03.22.05.33.09,3.69,1.27,4.33,2.7,2.78,6.27-.94,2.16-.81,2.81.84,4.51.99,1.02,2.03,2.01,2.95,3.09.84.99,1.33,2.19.7,3.44-.66,1.3-1.96,1.53-3.3,1.48-.9-.03-1.8-.1-2.7-.13-4.15-.11-9.26,3.26-10.43,7.22-.69,2.33-.5,4.83.97,6.92.48.68,1.46,1.15,2.3,1.4.95.27,2.02.12,3.02.27.99.15,2.01.33,2.93.71,1.55.63,1.94,1.35,1.35,2.93-1.03,2.75-1.2,5.56-.97,8.42.07.81.22,1.64.47,2.42.85,2.57,2.44,3.07,4.45,1.21,1.86-1.73,3.57-3.65,5.21-5.6,1.46-1.74,2.54-3.69,2.6-6.1.02-.73.47-1.49.87-2.14.47-.76,1.05-1.48,1.69-2.11,2.42-2.38,2.81-5.18,1.87-8.3-.38-1.25-.27-1.4.99-1.36.79.02,1.58.08,2.35.25,3.01.65,4.55,2.39,4.28,5.27-1.15,12.66-7.14,22.11-18.79,27.63-3.7,1.75-7.65,2.67-11.06,2.54Z"/>
    </g>
  </g>
</svg>