<?xml version="1.0" encoding="UTF-8"?>
<svg id="Layer_2" data-name="Layer 2" xmlns="http://www.w3.org/2000/svg" viewBox="0 0 109.49 113.01">
  <defs>
    <style>
      .cls-1 {
        fill: #fff;
      }
    </style>
  </defs>
  <g id="Layer_1-2" data-name="Layer 1">
    <g id="cArKGD.tif">
      <g>
        <path class="cls-1" d="m107.9,73.62c-1.71,2.02-3.85,3.47-6.15,4.72-2.59,1.42-5.4,2.13-8.31,2.54-2.13.3-4.26.42-6.41.26-.07,0-.15.01-.26.02-.05.41-.13.81-.15,1.22-.1,1.79-.15,3.59-.29,5.38-.37,4.69-1.01,9.32-2.81,13.72-2.25,5.5-6.26,8.95-12,10.43-2.01.52-4.03,1.01-6.13,1.04-.11,0-.21.04-.31.06l-2.54-3.35-8.83-11.63-2.79-3.68c-.29-3.17-.36-6.35-.44-9.53-.01-.18,0-.37,0-.62-.2.07-.36.12-.5.18-1.85.74-3.74,1.15-5.66,1.26l-2.52-3.32-2.76-3.64-1.03-1.36-2.1-2.76-1.19-1.58-2-2.63L7.21,36.72l-4.01-5.3-3.2-4.21c.06-.8.11-1.6.18-2.4.39-4.49,1.43-8.78,3.79-12.67,2.88-4.76,7.09-7.79,12.38-9.38,3.38-1.02,6.84-1.32,10.36-1.21,5.49.17,10.8,1.3,16.01,3,.34.11.61.1.94-.08,4.7-2.65,9.79-3.52,15.11-3.21,2.18.13,4.35.44,6.53.66.14.01.3.01.45-.03,3.14-.93,6.35-1.5,9.61-1.75,6.75-.51,13.28.31,19.46,3.24,4.56,2.16,8.36,5.28,11.46,9.25,1.38,1.76,2.05,3.81,2.4,5.98.48,2.95.39,5.91.06,8.87-.92,8.1-3.32,15.8-6.4,23.32-1.91,4.67-4.15,9.18-6.7,13.54-.09.15-.18.31-.32.56.85-.07,1.62-.1,2.37-.21,1.47-.22,2.93-.51,4.4-.73,1.68-.25,3.32-.11,4.81.77,1.35.81,2.27,1.98,2.51,3.53.29,1.98-.2,3.79-1.51,5.36Z"/>
        <path d="m51.3,97.59c.47,3.2,1.42,6.26,2.94,9.1,1.79,3.36,4.6,5.43,8.4,6.06.74.13,1.5.18,2.25.26h.19c.1-.02.2-.06.31-.06,2.1-.03,4.12-.52,6.13-1.04,5.74-1.48,9.75-4.93,12-10.43,1.8-4.4,2.44-9.03,2.81-13.72.14-1.79.19-3.59.29-5.38.02-.41.1-.81.15-1.22.11-.01.19-.02.26-.02,2.15.16,4.28.04,6.41-.26,2.91-.41,5.72-1.12,8.31-2.54,2.3-1.25,4.44-2.7,6.15-4.72,1.31-1.57,1.8-3.38,1.51-5.36-.24-1.55-1.16-2.72-2.51-3.53-1.49-.88-3.13-1.02-4.81-.77-1.47.22-2.93.51-4.4.73-.75.11-1.52.14-2.37.21.14-.25.23-.41.32-.56,2.55-4.36,4.79-8.87,6.7-13.54,3.08-7.52,5.48-15.22,6.4-23.32.33-2.96.42-5.92-.06-8.87-.35-2.17-1.02-4.22-2.4-5.98-3.1-3.97-6.9-7.09-11.46-9.25C88.64.45,82.11-.37,75.36.14c-3.26.25-6.47.82-9.61,1.75-.15.04-.31.04-.45.03-2.18-.22-4.35-.53-6.53-.66-5.32-.31-10.41.56-15.11,3.21-.33.18-.6.19-.94.08-5.21-1.7-10.52-2.83-16.01-3-3.52-.11-6.98.19-10.36,1.21-5.29,1.59-9.5,4.62-12.38,9.38C1.61,16.03.57,20.32.18,24.81c-.07.8-.12,1.6-.18,2.4v2.92c.04.59.05,1.18.13,1.77.31,2.28.57,4.58.99,6.84,1.44,7.74,3.34,15.35,5.85,22.81,1.59,4.76,3.42,9.42,5.97,13.75,1.49,2.52,3.2,4.86,5.56,6.64,1.73,1.32,3.66,2.14,5.86,2.22,2.48.1,4.64-.76,6.59-2.25.13-.1.26-.19.34-.26.51.45.95.89,1.45,1.26.52.37,1.07.7,1.64.99,1.96,1,4.08,1.41,6.25,1.65,1.24.14,2.47.18,3.69.09,1.92-.11,3.81-.52,5.66-1.26.14-.06.3-.11.5-.18,0,.25-.01.44,0,.62m55.61-14.64c-.44,1.15-1.29,1.98-2.21,2.74-3.06,2.55-6.58,4.06-10.53,4.6-2.21.3-4.42.49-6.64.25-.75-.08-1.49-.24-2.28-.37-.12,1.01-.24,2.06-.36,3.11-.26,2.13-.5,4.26-.78,6.38-.31,2.38-.62,4.76-.97,7.13-.32,2.25-.66,4.5-1.42,6.66-1.23,3.48-3.5,5.97-6.89,7.41-2.72,1.16-5.54,1.9-8.51,1.91-1.05,0-2.03-.11-2.96-.34-2.75-.68-4.93-2.36-6.56-5.03-1.24-2.05-1.97-4.24-2.27-6.6-.02-.14-.04-.29-.05-.43-.65-6.07-.72-12.17-.72-18.27v-.68c-.3.24-.54.43-.78.62-2.58,2.03-5.52,3.01-8.78,3.07-.53.01-1.06.01-1.58-.02-1.98-.08-3.91-.45-5.77-1.25-.91-.39-1.76-.89-2.39-1.7-1.03-1.32-.81-2.91.53-3.91.54-.4,1.12-.68,1.74-.9.6-.22,1.24-.37,1.88-.52,1.25-.3,2.5-.6,3.75-.93,1.14-.31,2.09-.94,2.8-1.91.42-.56.88-1.09,1.32-1.63.09-.12.15-.24.25-.38-.82-.12-1.59-.22-2.34-.34-1.27-.21-2.47-.65-3.6-1.24-.3-.15-.44-.1-.64.13-1.53,1.75-3.07,3.49-4.61,5.24-1.38,1.56-2.76,3.12-4.15,4.68-.58.65-1.23,1.27-1.94,1.78-2.64,1.94-5.7,1.85-8.29-.16-2.02-1.56-3.47-3.57-4.74-5.72-2.46-4.17-4.2-8.65-5.73-13.21-2.31-6.87-4.09-13.87-5.46-20.98-.49-2.48-.89-4.99-1.17-7.51-.02-.15-.03-.29-.04-.44-.22-2.21-.14-4.44.07-6.66.22-2.46.66-4.87,1.47-7.2,1.77-5.03,4.95-8.8,9.86-11.01,2.06-.93,4.23-1.5,6.46-1.79,5.57-.73,11.03-.04,16.43,1.33,1.96.5,3.88,1.18,5.83,1.75.19.05.46.03.61-.07,3.01-1.94,6.3-3.02,9.85-3.39,3.74-.4,7.43-.05,11.09.76.19.04.42.04.61-.03,2.57-.85,5.21-1.39,7.89-1.74,2.18-.28,4.36-.41,6.55-.34,6.43.18,12.41,1.79,17.71,5.55,2.34,1.66,4.37,3.64,6.12,5.91,1.06,1.38,1.51,3.03,1.76,4.72.46,3.18.25,6.35-.23,9.5-1.65,10.89-5.53,21.02-10.7,30.68-1.28,2.4-2.75,4.69-4.13,7.03-.09.16-.19.31-.31.49.7.52,1.49.7,2.29.82,2.45.39,4.88.07,7.3-.31,1.11-.18,2.21-.39,3.33-.53.45-.05.94.01,1.39.12,1.5.37,2.19,1.72,1.64,3.17Z"/>
        <path class="cls-1" d="m45.91,69.19c-.82-.12-1.58-.21-2.34-.34-1.27-.21-2.46-.65-3.6-1.24-.3-.15-.44-.1-.64.13-2.91,3.31-5.82,6.63-8.75,9.92-.58.65-1.24,1.27-1.94,1.78-2.64,1.94-5.7,1.84-8.3-.16-2.01-1.56-3.47-3.57-4.74-5.72-2.46-4.16-4.19-8.64-5.73-13.21-2.31-6.86-4.08-13.87-5.46-20.98-.48-2.49-.88-4.99-1.17-7.51-.27-2.36-.18-4.74.03-7.11.22-2.46.66-4.87,1.48-7.2,1.77-5.03,4.94-8.8,9.85-11.01,2.06-.93,4.23-1.5,6.46-1.79,5.57-.73,11.03-.04,16.43,1.34,1.97.5,3.89,1.17,5.83,1.75.18.05.46.03.61-.07,3-1.94,6.3-3.02,9.84-3.39,3.74-.39,7.43-.05,11.09.76.19.04.42.04.61-.03,2.57-.85,5.21-1.4,7.89-1.74,2.18-.28,4.36-.41,6.55-.35,6.42.18,12.41,1.8,17.71,5.56,2.34,1.66,4.37,3.63,6.11,5.9,1.07,1.39,1.51,3.03,1.76,4.73.46,3.17.25,6.34-.22,9.49-1.66,10.89-5.53,21.02-10.7,30.69-1.28,2.39-2.75,4.69-4.13,7.03-.09.16-.19.31-.31.49.69.52,1.48.7,2.29.82,2.45.39,4.88.07,7.3-.31,1.11-.18,2.21-.39,3.32-.53.46-.05.95,0,1.4.11,1.5.37,2.19,1.72,1.63,3.18-.44,1.15-1.29,1.98-2.2,2.74-3.06,2.55-6.58,4.06-10.53,4.6-2.21.3-4.41.48-6.63.25-.75-.08-1.49-.24-2.28-.37-.12,1.01-.24,2.06-.37,3.12-.26,2.13-.5,4.25-.77,6.38-.31,2.38-.62,4.76-.97,7.13-.33,2.25-.67,4.5-1.43,6.66-1.22,3.48-3.5,5.97-6.89,7.41-2.72,1.16-5.54,1.9-8.51,1.91-4.17,0-7.35-1.8-9.52-5.37-1.31-2.16-2.05-4.5-2.32-7.02-.65-6.08-.72-12.17-.72-18.27,0-.2,0-.39,0-.68-.3.24-.54.43-.78.62-2.57,2.03-5.52,3.01-8.78,3.07-2.53.05-5-.27-7.35-1.27-.91-.39-1.76-.89-2.39-1.7-1.03-1.32-.82-2.91.53-3.91,1.07-.8,2.34-1.12,3.61-1.42,1.25-.3,2.51-.59,3.75-.93,1.15-.31,2.09-.94,2.81-1.91.41-.56.88-1.09,1.31-1.64.09-.11.16-.24.25-.38Zm3.48-2.65c.52,0,.95-.05,1.36,0,3.86.53,5.52,3.98,5.51,6.39,0,1.29-.09,2.58-.08,3.88.04,4.21.05,8.42.18,12.63.08,2.62.35,5.24.53,7.85.14,1.93.74,3.71,1.69,5.38,1.53,2.71,3.81,4.13,6.95,4.09,2.35-.02,4.59-.62,6.76-1.46,2.82-1.08,4.7-3.05,5.64-5.92.74-2.25,1.01-4.58,1.35-6.9.25-1.69.48-3.39.7-5.09.21-1.58.39-3.16.58-4.74.17-1.43.36-2.86.51-4.29.16-1.51.28-3.02.41-4.53.07-.8.06-1.61.19-2.4.38-2.25,1.57-3.88,3.76-4.69.22-.08.44-.17.71-.27-.16-.21-.28-.38-.41-.54-1.3-1.61-2.53-3.27-3.43-5.15-.54-1.14-1.11-2.26-1.72-3.37-2.02-3.66-4.01-7.33-5.44-11.27-1.11-3.05-2-6.15-1.61-9.46.26-2.24,1.2-4.12,3.04-5.49,1.82-1.34,3.92-1.81,6.12-1.92,1.19-.06,2.4.04,3.6.07.14,0,.28,0,.49,0-.11-.3-.17-.51-.26-.72-2.36-5.86-5.94-10.83-10.89-14.77-5.32-4.23-11.45-6.28-18.21-6.41-1.6-.03-3.22.12-4.8.36-2.98.44-5.68,1.62-8.06,3.49-2.99,2.34-5,5.4-6.48,8.84-1.52,3.56-2.34,7.29-2.82,11.11-.05.43-.07.85-.11,1.34.15-.07.22-.09.28-.13,1.53-.82,3.13-1.47,4.8-1.96,2-.58,4.03-.92,6.11-.68,3.66.42,6.17,2.62,7.08,6.2.6,2.35.97,4.75,1.2,7.16.24,2.49.27,4.97,0,7.45-.27,2.42-.9,4.73-1.81,6.97-1,2.49-2,4.98-2.99,7.48-.18.46-.29.94-.44,1.43Zm-8.81-56.19c-.07-.03-.16-.07-.26-.1-4.25-1.36-8.59-2.28-13.04-2.51-2.79-.15-5.58,0-8.31.71-5.05,1.29-8.71,4.22-10.75,9.07-1.28,3.04-1.73,6.24-1.88,9.5-.13,2.89.1,5.77.65,8.61.7,3.61,1.43,7.22,2.27,10.8,1.5,6.38,3.35,12.66,5.83,18.74,1.27,3.11,2.69,6.15,4.68,8.89.8,1.1,1.69,2.12,2.83,2.88,1.44.95,2.75.95,4.13-.09.6-.45,1.15-1,1.65-1.56,2.65-2.99,5.29-6,7.92-9.01.18-.2.35-.41.58-.67-.15-.11-.28-.2-.38-.3-3.49-3.3-5.19-7.39-5.21-12.15,0-1.37.27-2.74.35-4.12.13-2.26.26-4.52.29-6.78.02-1.68-.19-3.37-.18-5.05.01-1.99.11-3.97.26-5.96.17-2.42.66-4.8,1.28-7.15,1.03-3.92,2.56-7.63,4.98-10.91.72-.97,1.53-1.88,2.31-2.83Zm47.72,53.43c.1-.15.19-.28.27-.4,3.37-5.39,6.2-11.04,8.5-16.96,2.51-6.46,4.51-13.06,5.24-19.99.25-2.35.34-4.69-.04-7.03-.18-1.13-.5-2.22-1.24-3.14-5.35-6.69-12.48-9.64-20.86-9.99-2.51-.1-5.01.08-7.49.46-.61.09-1.21.21-1.93.34.27.14.43.23.59.3,2.21,1.04,4.27,2.32,6.19,3.83,4.99,3.92,8.7,8.84,11.35,14.58,1.11,2.41,1.97,4.87,1.6,7.59-.19,1.41-.33,2.83-.5,4.24-.17,1.44-.39,2.88-.49,4.33-.19,2.65.28,5.27.56,7.89.23,2.22.37,4.44.08,6.67-.28,2.24-.94,4.36-2.06,6.31-.24.42-.21.68.22.97Zm-52.98-20.73c-.05,0-.1,0-.15,0,0,1.26.04,2.52-.01,3.78-.04,1.1-.16,2.21-.3,3.31-.21,1.6-.36,3.2-.15,4.8.47,3.56,2.08,6.47,4.92,8.67,1.8,1.39,3.85,2.16,6.13,2.27.29.01.4-.08.51-.37.88-2.41,1.64-4.87,2.71-7.19,1.97-4.29,2.86-8.73,2.49-13.44-.2-2.59-.59-5.15-1.13-7.68-.58-2.69-2.31-4.08-5.05-4.13-1.71-.03-3.35.32-4.95.86-1.79.61-3.5,1.38-5.04,2.51-.13.1-.28.3-.27.45.08,2.05.19,4.09.28,6.14Zm51.93-10.3c-.59-.05-1.11-.09-1.64-.14-1.69-.16-3.37-.12-5.02.31-1.57.41-2.9,1.18-3.45,2.81-.25.73-.39,1.54-.41,2.31-.04,1.51.26,2.98.67,4.43.99,3.53,2.57,6.81,4.26,10.04,1.27,2.42,2.54,4.84,3.82,7.26.06.11.14.22.24.38.09-.16.15-.26.2-.36.88-2.08,1.18-4.27,1.11-6.5-.06-1.71-.27-3.42-.45-5.12-.22-2.14-.58-4.27-.35-6.44.21-1.94.46-3.88.69-5.82.12-1.03.22-2.07.34-3.17Zm-50.54,44.92s0,.08,0,.12c.07.05.14.1.22.14.3.14.6.3.91.41,2.13.7,4.31.94,6.55.71,3.44-.36,6.11-2.03,8.14-4.79.16-.22.31-.47.36-.72.26-1.22-.18-2.27-1.07-3.02-1.19-1-1.88-.91-2.79.08-.06.07-.12.14-.18.21-.57.69-1.17,1.36-1.7,2.08-1.25,1.7-2.87,2.86-4.92,3.4-1.08.28-2.17.54-3.26.81-.76.19-1.51.38-2.26.58Zm65.18-7.2s-.05-.08-.08-.12c-.04,0-.09-.01-.13,0-2.79.53-5.58.96-8.44.73-1.78-.14-3.48-.48-4.98-1.51-.12-.08-.31-.11-.45-.08-.41.1-.81.24-1.21.37-.78.26-1.34.78-1.51,1.57-.17.75-.21,1.53-.25,2.29,0,.15.22.42.38.46.88.19,1.78.44,2.67.45,1.54,0,3.09-.09,4.63-.25,2.5-.27,4.88-.96,7.02-2.3.8-.5,1.57-1.06,2.36-1.59Z"/>
        <path d="m49.39,66.54c.15-.48.26-.97.44-1.43.99-2.5,1.99-4.99,2.99-7.48.91-2.25,1.54-4.56,1.81-6.97.27-2.49.24-4.97,0-7.45-.23-2.42-.61-4.81-1.2-7.16-.91-3.58-3.42-5.78-7.08-6.2-2.08-.24-4.11.1-6.11.68-1.67.49-3.27,1.14-4.8,1.96-.06.03-.13.06-.28.13.04-.49.06-.92.11-1.34.48-3.82,1.29-7.56,2.82-11.11,1.48-3.45,3.49-6.5,6.48-8.84,2.38-1.87,5.07-3.05,8.06-3.49,1.58-.23,3.2-.39,4.8-.36,6.76.13,12.89,2.19,18.21,6.41,4.95,3.93,8.54,8.9,10.89,14.77.08.21.15.42.26.72-.2,0-.35,0-.49,0-1.2-.03-2.4-.13-3.6-.07-2.19.11-4.3.58-6.12,1.92-1.84,1.36-2.78,3.24-3.04,5.49-.39,3.31.5,6.41,1.61,9.46,1.43,3.94,3.42,7.61,5.44,11.27.61,1.1,1.17,2.23,1.72,3.37.9,1.88,2.13,3.53,3.43,5.15.13.16.25.33.41.54-.27.1-.49.19-.71.27-2.19.81-3.38,2.44-3.76,4.69-.13.79-.12,1.6-.19,2.4-.13,1.51-.25,3.02-.41,4.53-.15,1.43-.33,2.86-.51,4.29-.19,1.58-.38,3.16-.58,4.74-.22,1.7-.45,3.39-.7,5.09-.34,2.32-.61,4.65-1.35,6.9-.94,2.88-2.82,4.84-5.64,5.92-2.18.84-4.41,1.43-6.76,1.46-3.14.03-5.42-1.38-6.95-4.09-.95-1.68-1.55-3.45-1.69-5.38-.18-2.62-.45-5.23-.53-7.85-.13-4.21-.14-8.42-.18-12.63-.01-1.29.08-2.58.08-3.88,0-2.41-1.65-5.86-5.51-6.39-.41-.06-.84,0-1.36,0Z"/>
        <path d="m40.58,10.34c-.78.95-1.6,1.86-2.31,2.83-2.42,3.29-3.95,6.99-4.98,10.91-.62,2.35-1.1,4.72-1.28,7.15-.14,1.98-.24,3.97-.26,5.96-.01,1.68.2,3.37.18,5.05-.03,2.26-.16,4.52-.29,6.78-.08,1.38-.35,2.75-.35,4.12.03,4.77,1.72,8.86,5.21,12.15.11.1.24.19.38.3-.23.26-.4.47-.58.67-2.64,3-5.27,6.02-7.92,9.01-.5.57-1.05,1.11-1.65,1.56-1.38,1.04-2.69,1.05-4.13.09-1.15-.76-2.03-1.78-2.83-2.88-1.99-2.74-3.41-5.78-4.68-8.89-2.48-6.08-4.33-12.36-5.83-18.74-.84-3.58-1.56-7.19-2.27-10.8-.55-2.84-.79-5.71-.65-8.61.15-3.26.6-6.46,1.88-9.5,2.04-4.85,5.69-7.78,10.75-9.07,2.73-.7,5.52-.85,8.31-.71,4.46.23,8.8,1.15,13.04,2.51.1.03.19.07.26.1Z"/>
        <path d="m88.3,63.78c-.43-.28-.46-.55-.22-.97,1.12-1.96,1.78-4.07,2.06-6.31.28-2.23.15-4.45-.08-6.67-.27-2.62-.75-5.24-.56-7.89.1-1.45.33-2.89.49-4.33.17-1.41.31-2.83.5-4.24.37-2.73-.49-5.19-1.6-7.59-2.65-5.74-6.37-10.66-11.35-14.58-1.92-1.51-3.98-2.78-6.19-3.83-.16-.08-.32-.16-.59-.3.72-.13,1.32-.25,1.93-.34,2.48-.37,4.98-.56,7.49-.46,8.38.34,15.51,3.29,20.86,9.99.74.92,1.05,2.01,1.24,3.14.38,2.34.29,4.69.04,7.03-.74,6.93-2.73,13.53-5.24,19.99-2.3,5.92-5.13,11.58-8.5,16.96-.08.13-.17.25-.27.4Z"/>
        <path d="m35.32,43.05c-.1-2.05-.2-4.09-.28-6.14,0-.15.14-.36.27-.45,1.53-1.12,3.25-1.9,5.04-2.51,1.6-.54,3.24-.89,4.95-.86,2.74.04,4.48,1.43,5.05,4.13.54,2.53.93,5.09,1.13,7.68.36,4.71-.52,9.15-2.49,13.44-1.07,2.32-1.83,4.78-2.71,7.19-.11.29-.22.38-.51.37-2.29-.11-4.33-.88-6.13-2.27-2.84-2.2-4.45-5.12-4.92-8.67-.21-1.61-.06-3.21.15-4.8.14-1.1.25-2.2.3-3.31.05-1.26.01-2.52.01-3.78.05,0,.1,0,.15,0Zm9.83-8.38c-.32.08-.89.16-1.39.37-.66.27-.88.86-.58,1.5.79,1.76,3.2,3.07,5.23,1.2.96-.88.84-1.78-.3-2.41-.85-.46-1.78-.58-2.95-.67Z"/>
        <path d="m87.24,32.75c-.12,1.1-.22,2.13-.34,3.17-.23,1.94-.48,3.88-.69,5.82-.24,2.16.12,4.3.35,6.44.18,1.7.39,3.41.45,5.12.08,2.23-.22,4.42-1.11,6.5-.05.11-.11.2-.2.36-.1-.16-.18-.26-.24-.38-1.27-2.42-2.55-4.83-3.82-7.26-1.69-3.23-3.27-6.51-4.26-10.04-.41-1.45-.71-2.93-.67-4.43.02-.78.16-1.58.41-2.31.55-1.63,1.89-2.4,3.45-2.81,1.65-.43,3.33-.47,5.02-.31.52.05,1.05.09,1.64.14Zm-4.88,1.09c-.95.06-1.84.24-2.65.69-.96.52-1.04,1.21-.24,1.96,1.72,1.59,4.01.7,4.82-1.11.23-.52.08-.95-.45-1.16-.47-.18-.98-.25-1.48-.37Z"/>
        <path d="m36.7,77.66c.75-.19,1.51-.39,2.26-.58,1.09-.27,2.18-.53,3.26-.81,2.05-.53,3.67-1.69,4.92-3.4.53-.72,1.13-1.39,1.7-2.08.06-.07.12-.14.18-.21.91-.99,1.6-1.09,2.79-.08.89.75,1.33,1.8,1.07,3.02-.06.26-.21.51-.36.72-2.03,2.76-4.69,4.43-8.14,4.79-2.24.23-4.42-.01-6.55-.71-.32-.1-.61-.27-.91-.41-.08-.04-.15-.09-.22-.14,0-.04,0-.08,0-.12Z"/>
        <path d="m101.88,70.47c-.79.53-1.56,1.09-2.36,1.59-2.15,1.35-4.53,2.04-7.02,2.3-1.53.16-3.08.26-4.63.25-.89,0-1.79-.26-2.67-.45-.16-.03-.39-.31-.38-.46.04-.77.08-1.55.25-2.29.18-.79.73-1.31,1.51-1.57.4-.13.8-.27,1.21-.37.14-.03.34,0,.45.08,1.5,1.03,3.21,1.37,4.98,1.51,2.86.23,5.65-.2,8.44-.73.04,0,.09,0,.13,0,.03.04.05.08.08.12Z"/>
        <path class="cls-1" d="m45.15,34.66c1.18.09,2.11.2,2.95.67,1.14.62,1.26,1.53.3,2.41-2.04,1.87-4.44.56-5.23-1.2-.29-.65-.08-1.23.58-1.5.51-.21,1.07-.29,1.39-.37Z"/>
        <path class="cls-1" d="m82.36,33.84c.49.12,1.01.19,1.48.37.53.21.68.64.45,1.16-.81,1.81-3.1,2.71-4.82,1.11-.8-.74-.72-1.44.24-1.96.82-.44,1.7-.63,2.65-.69Z"/>
      </g>
    </g>
  </g>
</svg>