<?xml version="1.0" encoding="UTF-8"?>
<svg id="Layer_2" data-name="Layer 2" xmlns="http://www.w3.org/2000/svg" viewBox="0 0 117.97 119.28">
  <defs>
    <style>
      .cls-1 {
        fill: #fff;
      }
    </style>
  </defs>
  <g id="Layer_1-2" data-name="Layer 1">
    <g id="wNuK8z.tif">
      <g>
        <path d="m55.97,119.28c-2.47-.4-4.95-.69-7.39-1.21-4.93-1.06-9.69-2.58-13.6-5.96-3.01-2.61-4.57-5.88-4.57-9.9.01-8.78-.02-17.56.01-26.34.02-7.13,4.71-13.04,11.53-14.52,1.1-.24,2.25-.32,3.38-.32,9.01-.02,18.03-.18,27.04.03,8.85.21,17.3-6.57,18.29-15.99.45-4.27.13-8.61.15-12.92,0-.54,0-1.08,0-1.76.53,0,.95,0,1.37,0,3.06,0,6.11.03,9.17,0,5.11-.07,8.83,2.24,11.39,6.57,2.11,3.56,3.04,7.52,3.86,11.51,1.06,5.12,1.69,10.28,1.19,15.52-.61,6.47-2.46,12.58-5.69,18.22-2.37,4.13-6.08,6.02-10.83,6.01-13.6-.02-27.2,0-40.8,0-.46,0-.92,0-1.45,0v3.54h28.04c.12.15.21.21.2.27-.01,4.15.21,8.32-.12,12.45-.35,4.24-3.04,7.18-6.55,9.37-4.26,2.66-9.04,3.83-13.9,4.71-1.61.29-3.23.49-4.84.73h-5.88Zm13.62-14.89c0,2.99,2.39,5.45,5.31,5.44,2.9,0,5.31-2.49,5.31-5.46,0-2.93-2.37-5.32-5.26-5.34-2.98-.01-5.34,2.35-5.35,5.36Z"/>
        <path d="m0,55.79c.32-2.08.58-4.17.98-6.24.78-4.07,1.57-8.15,4.05-11.64,3.44-4.84,8.19-7.4,14.06-7.46,12.73-.13,25.47-.04,38.2-.05.46,0,.93,0,1.48,0v-3.53h-28.08c-.13-.18-.21-.25-.21-.31.05-4.81-.11-9.64.23-14.44.38-5.33,3.89-8.21,8.74-9.69C44.83.77,50.39.2,56,.05c6.24-.16,12.48-.01,18.57,1.45,5.9,1.42,10.34,4.78,12.22,10.82.37,1.17.51,2.46.52,3.7.04,8.97.08,17.95,0,26.92-.06,7.36-4.8,13.03-11.9,14.36-1.07.2-2.18.19-3.28.19-9.01.01-18.02,0-27.04.01-8.45,0-15.65,5.59-17.66,13.78-.35,1.43-.44,2.94-.46,4.42-.06,3.68-.02,7.37-.02,11.05,0,.42,0,.85,0,1.19-.17.13-.23.22-.29.22-3.99-.05-8.01.19-11.96-.24-5.21-.57-8.49-3.99-10.72-8.53-1.83-3.73-2.53-7.79-3.26-11.82C.44,66,.24,64.42,0,62.84c0-2.35,0-4.7,0-7.05ZM37.6,14.17c0,2.98,2.44,5.43,5.35,5.39,2.88-.05,5.25-2.47,5.26-5.38.01-2.97-2.4-5.43-5.32-5.43-2.94,0-5.3,2.42-5.29,5.43Z"/>
        <path class="cls-1" d="m69.59,104.39c0-3,2.37-5.37,5.35-5.36,2.9.01,5.25,2.41,5.26,5.34,0,2.97-2.4,5.45-5.31,5.46-2.92,0-5.31-2.45-5.31-5.44Z"/>
        <path class="cls-1" d="m37.6,14.17c0-3.01,2.36-5.43,5.29-5.43,2.92,0,5.33,2.46,5.32,5.43-.01,2.91-2.39,5.33-5.26,5.38-2.91.05-5.34-2.4-5.35-5.39Z"/>
      </g>
    </g>
  </g>
</svg>