<?xml version="1.0" encoding="UTF-8"?>
<svg id="Layer_2" data-name="Layer 2" xmlns="http://www.w3.org/2000/svg" viewBox="0 0 353.17 109.53">
  <defs>
    <style>
      .cls-1 {
        fill: #fff;
      }
    </style>
  </defs>
  <g id="Layer_1-2" data-name="Layer 1">
    <g id="UL1aD2.tif">
      <g>
        <path d="m301.73,109.53c-.22-.1-.42-.22-.65-.28-9.31-2.58-18.63-5.16-27.95-7.74-2.43-.67-4.86-1.35-7.29-2.02-.87-.24-.88-.24-.97-1.18-.32-3.52-.63-7.03-.95-10.55-.4-4.39-.81-8.78-1.2-13.17-.24-2.7-.46-5.4-.7-8.09-.29-3.23-.59-6.45-.88-9.68-.24-2.67-.47-5.34-.7-8.01-.29-3.23-.58-6.45-.87-9.68-.24-2.7-.48-5.39-.72-8.09-.29-3.25-.58-6.5-.87-9.76-.24-2.7-.48-5.39-.72-8.09-.29-3.28-.59-6.56-.88-9.84-.09-1.05-.18-2.11-.27-3.26.44-.03.8-.08,1.15-.08,3.61,0,7.22,0,10.84,0,27.68,0,55.35,0,83.03,0,.63,0,1.26,0,1.95,0,.04.3.1.5.08.7-.21,2.54-.44,5.08-.66,7.62-.18,2.06-.38,4.12-.56,6.19-.3,3.36-.61,6.72-.91,10.07-.24,2.67-.46,5.34-.7,8.01-.29,3.25-.59,6.5-.88,9.76-.24,2.64-.47,5.29-.7,7.93-.3,3.33-.6,6.66-.9,9.99-.23,2.62-.46,5.24-.69,7.85-.3,3.33-.6,6.66-.9,9.99-.24,2.67-.47,5.34-.7,8.01-.29,3.25-.59,6.5-.88,9.76-.08.85-.15,1.69-.23,2.54-.07.78-.07.78-.79.98-6.24,1.73-12.49,3.45-18.73,5.18-5.48,1.52-10.95,3.04-16.42,4.57-.3.08-.58.23-.88.35-1.97,0-3.93,0-5.9,0Zm33.26-89.2c-.26-.01-.55-.04-.83-.04-8.76,0-17.53,0-26.29,0-1.05,0-1.05,0-1.05,1.07,0,6.19,0,12.38,0,18.56,0,5.36,0,10.73,0,16.09,0,.33.05.67.08,1.11,2.62-.17,5.15-.35,7.69-.5,2.53-.14,5.06-.38,7.66-.46,0,.42.02.74,0,1.05-.31,3.54-.62,7.09-.93,10.63-.12,1.32-.23,2.64-.33,3.97-.03.37-.18.59-.55.67-.23.05-.46.12-.69.18-4.02,1.01-8.03,2.01-12.05,3.02-.87.22-.88.23-.88,1.12,0,3.69,0,7.38,0,11.07,0,.22.05.44.08.74.43-.1.76-.17,1.09-.26,5.3-1.47,10.59-2.94,15.89-4.4,1.59-.44,3.17-.88,4.76-1.32.96-.27.97-.27,1.08-1.28.09-.87.15-1.75.23-2.62.24-2.67.47-5.34.71-8.01.29-3.28.59-6.56.89-9.83.24-2.7.49-5.39.73-8.09.22-2.46.43-4.92.64-7.38.01-.12-.05-.25-.09-.46-.31,0-.59,0-.88,0-2.79,0-5.58,0-8.37,0-1.89,0-3.77,0-5.66-.01-.63,0-.69-.09-.66-.7.15-3.26.3-6.52.45-9.79.03-.71.11-1.41.16-2.14.33-.03.57-.07.8-.08,1.49-.05,2.97-.09,4.46-.12,3.34-.07,6.69-.13,10.03-.2.28,0,.57-.04.82-.06.31-.94,1.17-10.74,1.01-11.52Zm-32.92.14c-.22-.08-.3-.13-.37-.13-3.16,0-6.32-.01-9.48-.02-.38,0-.52.19-.49.55.03.37.07.74.09,1.11.11,3.13.22,6.26.32,9.39.1,3.02.22,6.05.31,9.07.12,3.9.22,7.8.35,11.7.14,4.11.3,8.22.44,12.34.1,2.84.18,5.68.27,8.52,0,.09-.05.19-.09.31-.13,0-.24,0-.34-.02-2.02-.57-4.04-1.15-6.05-1.73-.64-.19-.7-.27-.75-.95-.12-1.75-.24-3.5-.36-5.24-.05-.79-.08-.8-.87-.94-2.04-.35-4.08-.72-6.12-1.08-.28-.05-.56-.08-.89-.13-.02.3-.05.51-.04.71.16,1.93.34,3.86.51,5.79.25,2.75.49,5.5.74,8.25.11,1.19.23,2.38.32,3.57.04.56.28.89.84.98.1.02.2.06.31.09,6.8,1.9,13.61,3.8,20.41,5.69.27.08.55.12.85.18.05-.18.09-.28.09-.38.03-2.26.09-4.51.08-6.77,0-2.57-.1-5.15-.1-7.72,0-17.4,0-34.79,0-52.19,0-.31,0-.63,0-.95Z"/>
        <path d="m45.44,109.53c-.19-.09-.36-.22-.56-.27-6.45-1.78-12.9-3.55-19.35-5.34-5.32-1.47-10.64-2.96-15.96-4.44-.78-.22-.85-.28-.92-1.08-.34-3.89-.67-7.78-1.01-11.66-.28-3.17-.59-6.34-.88-9.52-.24-2.72-.46-5.45-.7-8.17-.29-3.2-.59-6.4-.88-9.6-.24-2.7-.47-5.4-.71-8.09-.29-3.23-.58-6.45-.87-9.68-.24-2.67-.48-5.34-.72-8.01-.3-3.31-.59-6.61-.89-9.92-.24-2.72-.48-5.45-.72-8.17-.18-2.01-.37-4.02-.54-6.03C.48,6.69.25,3.83.01.97-.01.71,0,.45,0,.11.32.07.57.01.82,0,1.49,0,2.15,0,2.81,0c30.97,0,61.95,0,92.92,0,.42,0,.83.03,1.33.05-.07.82-.13,1.55-.2,2.28-.25,2.72-.49,5.45-.74,8.17-.3,3.33-.6,6.66-.9,10-.23,2.62-.46,5.24-.7,7.85-.3,3.33-.6,6.66-.9,10-.23,2.57-.45,5.13-.68,7.7-.3,3.38-.61,6.77-.91,10.15-.24,2.67-.46,5.34-.7,8.01-.35,3.86-.7,7.72-1.05,11.58-.24,2.67-.46,5.34-.7,8.01-.29,3.25-.59,6.5-.88,9.76-.14,1.59-.27,3.17-.4,4.76-.07.87-.09.9-.93,1.13-11.46,3.18-22.93,6.36-34.39,9.54-.51.14-.99.35-1.49.52h-6.06Zm-23.54-46.22c0,.51-.03.98,0,1.45.18,2.01.38,4.02.57,6.02.33,3.62.66,7.24.96,10.87.04.48.19.74.66.83.26.05.51.15.77.22,7.55,2.1,15.1,4.19,22.64,6.3.76.21,1.45.14,2.19-.07,6.47-1.8,12.95-3.59,19.42-5.39,1.23-.34,2.45-.7,3.68-1.03.49-.13.69-.4.71-.9.02-.69.11-1.38.17-2.06.23-2.59.46-5.18.69-7.77.3-3.36.6-6.72.9-10.07.24-2.67.48-5.34.72-8.01.23-2.56.47-5.13.69-7.69.03-.31,0-.62,0-.98-.36-.02-.61-.05-.87-.05-14.05,0-28.1.02-42.15.03-.21,0-.43,0-.64,0-.59-.03-.64-.06-.69-.63-.1-1.11-.19-2.22-.29-3.33-.2-2.19-.4-4.39-.6-6.58-.06-.62-.1-1.25-.16-1.95.51-.03.93-.06,1.35-.06,5.5.02,10.99.07,16.49.08,9.19,0,18.38,0,27.57-.01.21,0,.43,0,.64,0,.4,0,.59-.19.6-.58,0-.13.02-.27.03-.4.3-3.36.6-6.72.9-10.07.03-.34,0-.68,0-1.09-.4-.02-.77-.06-1.13-.06-12.01,0-24.01.01-36.02.02-7.52,0-15.03,0-22.55,0-.36,0-.71.05-1.14.08.03.62.05,1.15.08,1.67.02.34.07.69.1,1.03.18,2.04.35,4.07.53,6.11.24,2.72.49,5.44.74,8.17.19,2.14.39,4.28.58,6.42.18,2.06.35,4.13.54,6.19.2,2.17.4,4.33.62,6.5.02.17.09.34.14.53.25.02.46.04.67.04,9.14.01,18.27.03,27.41.04,4.3,0,8.61,0,12.91,0,.31,0,.62.03,1.02.06-.07.76-.14,1.44-.2,2.12-.38,4.28-.76,8.57-1.14,12.85-.06.72-.06.72-.75.91-3.54.95-7.08,1.91-10.61,2.86-.77.21-1.54.59-2.3.59-.79,0-1.58-.39-2.38-.61-3.43-.93-6.87-1.86-10.3-2.79-.75-.2-.79-.24-.87-1.02-.08-.79-.14-1.59-.2-2.38-.17-1.93-.33-3.86-.5-5.79-.06-.67-.12-.73-.77-.71-.5.02-1.01.06-1.51.06-3.11,0-6.22,0-9.32,0-.18,0-.36.02-.59.04Z"/>
        <path d="m173.74,109.53c-.19-.09-.37-.21-.57-.26-4.66-1.28-9.32-2.54-13.98-3.84-7.29-2.03-14.58-4.07-21.86-6.12-1.38-.39-1.19-.15-1.32-1.56-.34-3.67-.65-7.35-.96-11.02-.24-2.88-.43-5.77-.66-8.65-.18-2.25-.4-4.49-.59-6.74-.13-1.51-.24-3.02-.37-4.52-.19-2.35-.39-4.71-.58-7.06-.12-1.51-.25-3.02-.37-4.52-.2-2.41-.4-4.81-.6-7.22-.13-1.67-.25-3.33-.38-5-.17-2.17-.36-4.34-.53-6.51-.14-1.72-.27-3.44-.41-5.16-.18-2.12-.36-4.23-.54-6.35-.13-1.56-.27-3.12-.4-4.68-.2-2.46-.4-4.92-.61-7.38-.17-2.12-.34-4.23-.51-6.35-.15-1.8-.31-3.6-.45-5.4-.03-.34,0-.68,0-.98.06-.06.08-.08.1-.09.02-.02.04-.03.07-.04.13-.02.26-.06.39-.06,31.82,0,63.64,0,95.46,0,.13,0,.26.02.39.04.05,0,.09.04.23.11,0,.18.02.41,0,.63-.25,2.83-.51,5.66-.76,8.48-.25,2.75-.51,5.5-.75,8.25-.17,1.96-.32,3.92-.49,5.87-.25,2.8-.52,5.6-.77,8.4-.18,2.09-.34,4.18-.52,6.27-.25,2.86-.52,5.71-.77,8.56-.17,1.98-.32,3.97-.49,5.95-.26,2.91-.53,5.81-.78,8.72-.17,1.98-.33,3.97-.5,5.95-.25,2.85-.52,5.71-.77,8.56-.18,2.09-.33,4.18-.52,6.27-.23,2.67-.49,5.34-.73,8.01-.14,1.59-.26,3.17-.39,4.76-.1,1.22-.22,2.43-.32,3.65-.04.45-.35.55-.69.64-1.38.39-2.76.79-4.14,1.18-7.76,2.23-15.51,4.47-23.27,6.69-2.65.76-5.32,1.48-7.98,2.23-.2.06-.37.18-.56.28h-5.74Zm1.83-76.52c.01.07.03.14.04.21-.45.21-.9.43-1.36.63-3.51,1.52-7.02,3.02-10.54,4.54-5.19,2.24-10.38,4.49-15.58,6.73-.72.31-.71.31-.61,1.06.4,2.81.8,5.62,1.21,8.43.1.7.23,1.39.36,2.17h42.03c0,.28.01.46,0,.63-.24,2.54-.48,5.07-.73,7.61-.24,2.43-.5,4.86-.74,7.29-.06.63-.07.66-.66.81-.13.03-.26.05-.39.08-3.91.74-7.82,1.48-11.74,2.22-.18.03-.37.04-.55,0-4.21-.89-8.41-1.78-12.62-2.68-1.12-.24-1.12-.25-1.26-1.38,0-.03,0-.05,0-.08-.28-2.35-.55-4.69-.83-7.04-.1-.87-.14-.91-1.05-.91-3.32,0-6.64,0-9.96,0-.28,0-.56.04-.88.06,0,.55-.03,1.03,0,1.5.24,2.86.51,5.71.76,8.56.23,2.62.45,5.24.68,7.85.08.84.09.85.9,1.07,2.81.8,5.62,1.6,8.43,2.38,5.04,1.4,10.09,2.78,15.13,4.18.74.21,1.43.2,2.18-.04,3.74-1.2,7.5-2.34,11.26-3.51,3.73-1.16,7.45-2.33,11.18-3.47.5-.15.74-.37.78-.92.35-4.21.73-8.41,1.1-12.61.18-2.06.35-4.13.53-6.19.3-3.38.6-6.77.9-10.15.19-2.14.35-4.29.55-6.43.1-1.13.12-1.13-.98-1.13-.03,0-.05,0-.08,0-7.46,0-14.93,0-22.39,0-.63,0-1.26,0-1.89,0-.02-.07-.03-.14-.05-.21.52-.24,1.03-.49,1.56-.7,3.88-1.59,7.77-3.17,11.65-4.75,4.55-1.85,9.09-3.72,13.65-5.55.61-.24.85-.55.85-1.22-.03-3.32-.01-6.64-.02-9.96,0-.28-.05-.56-.08-.89-.34-.02-.59-.06-.85-.06-9.72.02-19.44.05-29.16.06-10.09,0-20.19-.02-30.28-.02-.2,0-.4.05-.71.1.49,3.95,1.05,7.82,1.59,11.76h28.66Z"/>
        <path class="cls-1" d="m334.99,20.33c.16.78-.7,10.58-1.01,11.52-.25.02-.53.06-.82.06-3.34.07-6.69.13-10.03.2-1.49.03-2.97.08-4.46.12-.23,0-.47.05-.8.08-.06.73-.13,1.43-.16,2.14-.16,3.26-.3,6.52-.45,9.79-.03.6.03.69.66.7,1.89.02,3.77.01,5.66.01,2.79,0,5.58,0,8.37,0,.29,0,.57,0,.88,0,.04.22.1.34.09.46-.21,2.46-.42,4.92-.64,7.38-.24,2.7-.48,5.39-.73,8.09-.3,3.28-.59,6.56-.89,9.83-.24,2.67-.47,5.34-.71,8.01-.08.87-.14,1.75-.23,2.62-.11,1.01-.12,1.01-1.08,1.28-1.59.44-3.17.88-4.76,1.32-5.3,1.47-10.59,2.94-15.89,4.4-.33.09-.66.16-1.09.26-.03-.29-.08-.52-.08-.74,0-3.69,0-7.38,0-11.07,0-.89,0-.9.88-1.12,4.02-1.01,8.03-2.02,12.05-3.02.23-.06.46-.13.69-.18.37-.08.52-.3.55-.67.1-1.32.21-2.65.33-3.97.31-3.54.63-7.08.93-10.63.03-.31,0-.62,0-1.05-2.6.08-5.13.32-7.66.46-2.54.14-5.07.33-7.69.5-.03-.45-.08-.78-.08-1.11,0-5.36,0-10.73,0-16.09,0-6.19,0-12.38,0-18.56,0-1.07,0-1.07,1.05-1.07,8.76,0,17.53,0,26.29,0,.28,0,.57.03.83.04Z"/>
        <path class="cls-1" d="m302.08,20.46c0,.32,0,.63,0,.95,0,17.4-.01,34.79,0,52.19,0,2.57.09,5.15.1,7.72,0,2.26-.05,4.51-.08,6.77,0,.1-.05.2-.09.38-.3-.06-.58-.1-.85-.18-6.8-1.9-13.61-3.79-20.41-5.69-.1-.03-.2-.07-.31-.09-.56-.09-.8-.42-.84-.98-.09-1.19-.22-2.38-.32-3.57-.25-2.75-.5-5.5-.74-8.25-.17-1.93-.34-3.86-.51-5.79-.02-.2.02-.41.04-.71.33.05.61.08.89.13,2.04.36,4.08.73,6.12,1.08.79.14.82.15.87.94.12,1.75.24,3.5.36,5.24.05.68.11.76.75.95,2.01.59,4.03,1.16,6.05,1.73.1.03.2.01.34.02.04-.12.09-.21.09-.31-.09-2.84-.17-5.68-.27-8.52-.14-4.11-.31-8.22-.44-12.34-.13-3.9-.22-7.8-.35-11.7-.09-3.03-.21-6.05-.31-9.07-.11-3.13-.21-6.26-.32-9.39-.01-.37-.06-.74-.09-1.11-.03-.36.11-.55.49-.55,3.16,0,6.32.01,9.48.02.07,0,.15.05.37.13Z"/>
        <path class="cls-1" d="m21.9,63.3c.23-.02.41-.04.59-.04,3.11,0,6.22,0,9.32,0,.5,0,1.01-.04,1.51-.06.65-.02.71.04.77.71.17,1.93.33,3.86.5,5.79.07.79.12,1.59.2,2.38.08.77.13.81.87,1.02,3.43.93,6.87,1.86,10.3,2.79.79.21,1.58.6,2.38.61.77,0,1.53-.38,2.3-.59,3.54-.95,7.08-1.91,10.61-2.86.69-.19.69-.19.75-.91.38-4.28.76-8.57,1.14-12.85.06-.68.13-1.36.2-2.12-.41-.02-.71-.06-1.02-.06-4.3,0-8.61,0-12.91,0-9.14,0-18.27-.02-27.41-.04-.21,0-.42-.03-.67-.04-.05-.19-.13-.36-.14-.53-.21-2.17-.42-4.33-.62-6.5-.19-2.06-.36-4.12-.54-6.19-.19-2.14-.39-4.28-.58-6.42-.25-2.72-.5-5.44-.74-8.17-.18-2.04-.36-4.07-.53-6.11-.03-.34-.08-.69-.1-1.03-.03-.53-.05-1.05-.08-1.67.43-.03.78-.08,1.14-.08,7.52,0,15.03,0,22.55,0,12.01,0,24.01-.01,36.02-.02.36,0,.73.03,1.13.06,0,.41.03.75,0,1.09-.29,3.36-.6,6.72-.9,10.07-.01.13-.02.26-.03.4-.01.39-.2.59-.6.58-.21,0-.42,0-.64,0-9.19,0-18.38.02-27.57.01-5.5,0-10.99-.05-16.49-.08-.42,0-.84.04-1.35.06.06.71.11,1.33.16,1.95.2,2.19.4,4.39.6,6.58.1,1.11.19,2.22.29,3.33.05.57.1.6.69.63.21,0,.42,0,.64,0,14.05-.01,28.1-.02,42.15-.03.26,0,.52.03.87.05,0,.36.02.67,0,.98-.23,2.57-.46,5.13-.69,7.69-.24,2.67-.48,5.34-.72,8.01-.3,3.36-.6,6.72-.9,10.07-.23,2.59-.46,5.18-.69,7.77-.06.69-.14,1.37-.17,2.06-.02.5-.22.77-.71.9-1.23.33-2.45.69-3.68,1.03-6.47,1.8-12.95,3.58-19.42,5.39-.73.2-1.43.28-2.19.07-7.54-2.11-15.09-4.2-22.64-6.3-.26-.07-.51-.17-.77-.22-.47-.09-.62-.35-.66-.83-.3-3.62-.63-7.24-.96-10.87-.18-2.01-.39-4.02-.57-6.02-.04-.47,0-.94,0-1.45Z"/>
        <path class="cls-1" d="m175.57,33.01h-28.66c-.54-3.93-1.1-7.8-1.59-11.76.31-.04.51-.1.71-.1,10.09,0,20.19.03,30.28.02,9.72,0,19.44-.04,29.16-.06.26,0,.52.03.85.06.03.33.08.61.08.89,0,3.32-.01,6.64.02,9.96,0,.67-.24.98-.85,1.22-4.56,1.83-9.1,3.7-13.65,5.55-3.88,1.58-7.77,3.16-11.65,4.75-.53.22-1.04.47-1.56.7.02.07.03.14.05.21.63,0,1.26,0,1.89,0,7.46,0,14.93,0,22.39,0,.03,0,.05,0,.08,0,1.1,0,1.09,0,.98,1.13-.2,2.14-.36,4.29-.55,6.43-.3,3.38-.6,6.77-.9,10.15-.18,2.06-.35,4.13-.53,6.19-.37,4.2-.75,8.41-1.1,12.61-.05.55-.28.77-.78.92-3.73,1.14-7.46,2.31-11.18,3.47-3.75,1.17-7.51,2.31-11.26,3.51-.75.24-1.44.24-2.18.04-5.04-1.4-10.09-2.78-15.13-4.18-2.81-.78-5.62-1.58-8.43-2.38-.81-.23-.82-.23-.9-1.07-.24-2.62-.45-5.24-.68-7.85-.25-2.86-.51-5.71-.76-8.56-.04-.47,0-.94,0-1.5.31-.02.59-.06.88-.06,3.32,0,6.64,0,9.96,0,.9,0,.94.04,1.05.91.28,2.35.55,4.69.83,7.04,0,.03,0,.05,0,.08.14,1.13.13,1.14,1.26,1.38,4.21.9,8.41,1.79,12.62,2.68.17.04.37.03.55,0,3.91-.74,7.83-1.48,11.74-2.22.13-.02.26-.05.39-.08.59-.15.6-.18.66-.81.24-2.43.5-4.86.74-7.29.25-2.54.49-5.07.73-7.61.02-.18,0-.36,0-.63h-42.03c-.13-.78-.26-1.47-.36-2.17-.41-2.81-.8-5.62-1.21-8.43-.11-.75-.12-.75.61-1.06,5.19-2.24,10.38-4.49,15.58-6.73,3.51-1.52,7.02-3.02,10.54-4.54.46-.2.9-.42,1.36-.63-.01-.07-.03-.14-.04-.21Z"/>
      </g>
    </g>
  </g>
</svg>